<svg width="37" height="50" fill="none" xmlns="http://www.w3.org/2000/svg"><path d="M3.43 0h2.143v2.078h2.144V0h2.144v6.51H7.717V4.432H5.573V6.51H3.43V0zm7.717 0v2.078h2V6.51h2.43V2.078h1.858V0h-6.288zm7.574 0h2.43l1.429 2.078L23.866 0h2.573v6.51h-2.144V3.324L22.58 5.54l-1.715-2.216V6.51h-2.144V0zm9.004 0h2.286v4.432h3.145V6.51h-5.431V0z" fill="#8C969C"/><path fill-rule="evenodd" clip-rule="evenodd" d="M0 9.834h36.586l-3.287 36.01L18.007 50 3.43 45.845 0 9.834zm29.726 7.34H6.86L8.003 30.61h15.863l-.428 5.679-5.002 1.524-5.288-1.524-.286-3.324H8.29l.714 6.925 9.433 2.493 9.289-2.493 1.286-13.712h-16.72l-.572-4.71h17.578l.429-4.293z" fill="#5BC4CF"/></svg>