<svg width="48" height="48" fill="none" xmlns="http://www.w3.org/2000/svg"><path d="M48 12L33 5.25 38.25 0c6 0 9.415 4.169 9.75 12zm-2.25 32.25l-10.861-9.14C28.499 40.5 20.512 46.93 10.5 48l35.25-3.75z" fill="#AFB5B9"/><path d="M45.75 44.25L48 12c-2.272 8.921-4.729 13.968-13.111 23.111l10.86 9.139z" fill="#8C969C"/><path d="M10.5 48L5.25 31.5 0 37.5c0 8.25 4.262 9.916 10.5 10.5zm24.389-12.889l-17.64-7.361L10.5 48c9.641-1.114 15.1-4.177 24.39-12.889z" fill="#BFC4C8"/><path d="M48 12l-18.75 5.25 5.639 17.861c7.738-8.495 10.72-13.532 13.11-23.111zM5.333 31.778l12-4L29.25 17.25l3.86-11.917L25.779 0l-10.89 5.333-9.555 9.334L0 23.777l5.333 8z" fill="#BFC4C8"/><path d="M0 37.5l5.25-6L0 23.777V37.5zm5.25-6L10.5 48l6.75-20.25-12 3.75z" fill="#D9DFE3"/><path d="M17.25 27.75l17.639 7.36-5.64-17.86-12 10.5zm12-10.5L48 12 33 5.25l-3.75 12zM25.79 0L33 5.25 38.25 0H25.79z" fill="#D9DFE3"/></svg>