<svg width="43" height="50" fill="none" xmlns="http://www.w3.org/2000/svg"><path d="M35.398 16.83v20.453c-.181 1.651-.73 2.133-2.17 2.54h-3.39v6.818c0 4.545-5.968 4.412-5.968 0v-6.818h-4.747v6.818c0 4.545-6.103 4.412-6.103 0v-6.818H9.63c-1.399-.45-1.896-.96-2.035-2.54V16.83h27.803z" fill="#5BC4CF"/><path fill-rule="evenodd" clip-rule="evenodd" d="M7.595 15.225h27.667c.09-5.498-2.954-9.173-7.052-11.024-.223-.1-.45-.196-.678-.286-3.811-1.497-8.395-1.497-12.207 0-.228.09-.455.185-.678.286-4.098 1.85-7.142 5.525-7.052 11.024zm5.967-5.748c0-1.604 2.577-1.604 2.577 0 0 1.738-2.577 1.738-2.577 0zm13.156 0c0-1.604 2.577-1.604 2.577 0 0 1.738-2.577 1.738-2.577 0z" fill="#5BC4CF"/><path d="M37.025 19.236c0-4.01 5.832-4.01 5.832 0v12.967c0 3.877-5.832 3.743-5.832 0V19.236zM0 19.236v12.967c0 3.743 5.967 3.877 5.967 0V19.236c0-4.01-5.967-3.743-5.967 0zM15.325 3.915L13.155.253c-.406-.535-.949-.134-.542.4l2.034 3.548c.223-.1.45-.196.678-.286zM29.566.386l-2.034 3.53c.229.089.455.184.678.285L30.38.654c.271-.535-.407-.936-.814-.268z" fill="#5BC4CF"/></svg>