<svg width="42" height="50" fill="none" xmlns="http://www.w3.org/2000/svg"><path d="M21.003 11.568C27.578 11.158 31.254 6.503 31.254 0 24.61 1.027 20.72 5.27 21.004 11.568z" fill="#8C969C"/><path d="M8.631 47.708C1.35 40.59-1.69 28.817.926 21.014c3.18-8.077 10.321-10.593 18.451-7.05.796.346 1.261.515 2.404.41.636-.137 1.18-.256 1.93-.753 2.792-1.848 12.492-3.56 17.087 3.491-8.554 5.065-6.787 16.975 1.202 19.713-1.417 4.44-2.941 6.805-6.504 10.883-2.688 2.827-5.129 3.044-11.382.623-1.131-.486-3.181-.627-4.666.062-5.02 2.327-8.342 2.122-10.817-.685z" fill="#8C969C"/></svg>