<svg width="52" height="50" fill="none" xmlns="http://www.w3.org/2000/svg"><path fill-rule="evenodd" clip-rule="evenodd" d="M6.438 12.706h18.39v-1.362H13.104V6.353C13.334 2.496 17.816 0 24.828 0c8.045 0 11.838 3.403 11.838 6.353v11.571c0 2.382-2.414 5.672-5.402 5.672H18.621c-2.988 0-6.781 2.723-6.781 6.807v5.558H5.633c-7.47 0-7.816-23.255.805-23.255zm9.54-6.353c0-3.177 4.597-3.29 4.597 0 0 2.95-4.598 2.95-4.598 0z" fill="#5BC4CF"/><path fill-rule="evenodd" clip-rule="evenodd" d="M6.438 12.706h18.39v-1.362H13.104V6.353C13.334 2.496 17.816 0 24.828 0c8.045 0 11.838 3.403 11.838 6.353v11.571c0 2.382-2.414 5.672-5.402 5.672H18.621c-2.988 0-6.781 2.723-6.781 6.807v5.558H5.633c-7.47 0-7.816-23.255.805-23.255zm9.54-6.353c0-3.177 4.597-3.29 4.597 0 0 2.95-4.598 2.95-4.598 0z" fill="#5BC4CF"/><path d="M26.392 37.294h18.39c8.62 0 8.275-23.255.804-23.255H39.38v5.558c0 4.084-3.793 6.807-6.782 6.807H19.955c-2.988 0-5.402 3.29-5.402 5.672v11.571c0 2.95 3.793 6.353 11.839 6.353 7.01 0 11.493-2.496 11.723-6.353v-4.991H26.392v-1.362z" fill="#FFED86"/><path fill-rule="evenodd" clip-rule="evenodd" d="M44.782 37.294h-18.39v1.362h11.723v4.991C37.885 47.504 33.403 50 26.392 50c-8.046 0-11.839-3.403-11.839-6.353V32.076c0-2.382 2.414-5.672 5.402-5.672h12.643c2.989 0 6.782-2.723 6.782-6.807V14.04h6.206c7.471 0 7.816 23.255-.804 23.255zm-9.54 6.353c0 3.177-4.598 3.29-4.598 0 0-2.95 4.598-2.95 4.598 0z" fill="#FFED86"/></svg>