<svg width="96" height="88" fill="none" xmlns="http://www.w3.org/2000/svg"><path d="M80.76 2.38a2.38 2.38 0 11-4.76 0 2.38 2.38 0 014.76 0zm-76 61a2.38 2.38 0 11-4.76 0 2.38 2.38 0 014.76 0zM93.933 81.4h-2.266v-2.266a1.133 1.133 0 10-2.267 0V81.4h-2.266a1.134 1.134 0 000 2.267H89.4v2.266a1.134 1.134 0 002.267 0v-2.266h2.266a1.134 1.134 0 000-2.267z" fill="#42BBC4"/><path fill-rule="evenodd" clip-rule="evenodd" d="M64.252 17.128v58.648A5.225 5.225 0 0159.027 81H33.236a5.225 5.225 0 01-5.225-5.224V17.128a5.226 5.226 0 015.225-5.224h25.791a5.225 5.225 0 015.225 5.224z" fill="#9EBAC9"/><path d="M33.236 13.32h25.792a3.807 3.807 0 013.807 3.808v58.648a3.808 3.808 0 01-3.807 3.807H33.236a3.807 3.807 0 01-3.807-3.807V17.128a3.807 3.807 0 013.807-3.807z" fill="#FAFAFA"/><path d="M45.86 70.163c5.603 0 10.145-.8 10.145-1.785 0-.987-4.542-1.786-10.146-1.786-5.603 0-10.146.8-10.146 1.785 0 .987 4.543 1.786 10.146 1.786z" fill="#C6E8FB"/><path fill-rule="evenodd" clip-rule="evenodd" d="M64.555 36.428h-.303V22.591h.303a.685.685 0 01.685.685v12.467a.685.685 0 01-.685.685zm-36.544-7.342h-.281a.637.637 0 01-.638-.636v-5.458a.637.637 0 01.637-.637h.281l.001 6.731zm0 7.342h-.245a.555.555 0 01-.556-.554v-3.032a.555.555 0 01.555-.555h.246v4.142z" fill="#42BBC4"/><path fill-rule="evenodd" clip-rule="evenodd" d="M37.578 11.904h17.13v2.46a2.467 2.467 0 01-2.459 2.46H40.038a2.467 2.467 0 01-2.46-2.46v-2.46z" fill="#9EBAC9"/><path fill-rule="evenodd" clip-rule="evenodd" d="M42.487 14.364a.594.594 0 11-1.189 0 .594.594 0 011.19 0z" fill="#C6E8FB"/><path d="M50.687 13.927h-7.371a.302.302 0 00-.303.303v.268c0 .167.136.302.303.302h7.371a.302.302 0 00.303-.302v-.268a.302.302 0 00-.303-.303z" fill="#C6E8FB"/><path fill-rule="evenodd" clip-rule="evenodd" d="M26.347 34.786c.6-.299 1.456.305 1.92 1.35.343.074.576.582.533 1.192-.037.505-.252.934-.525 1.1a.785.785 0 01-.255.205c-.607.301-1.472-.316-1.934-1.379-.461-1.063-.345-2.167.261-2.468zm36.693 7.636c-.601-.298-1.457.306-1.921 1.35-.342.074-.576.583-.532 1.194.036.505.252.933.525 1.1.07.085.156.155.255.205.607.301 1.471-.316 1.933-1.38.462-1.062.345-2.167-.26-2.469z" fill="#F2D9C8"/><path fill-rule="evenodd" clip-rule="evenodd" d="M44.333 45.588l-4.346.617c-5.516.783-9.405-2.68-11.228-8.328a2.181 2.181 0 01-1.837.594c.876 7.163 4.996 11.283 12.213 12.825.18 5.61.483 11.677.347 17.19 4.006.89 8.146.992 12.19.302a85.94 85.94 0 01.163-15.936c1.86 1.866 5.28 4.106 6.485 3.886 2.128-.39 3.268-5.736 3.938-10.561a1.925 1.925 0 01-1.672-1.212c-.827 2.695-1.79 4.941-2.838 7.468-3.854-2.525-5.293-4.814-9.674-7.052l-3.741.207z" fill="#42BBC4"/><path fill-rule="evenodd" clip-rule="evenodd" d="M44.273 43.442h3.801v1.939c1.057 1.034.503 1.827-1.005 1.749-1.285-.067-2.796-.514-2.796-2.036v-1.652z" fill="#F2D9C8"/><path fill-rule="evenodd" clip-rule="evenodd" d="M44.273 43.442h3.801v.97l-3.214 2.015a1.675 1.675 0 01-.587-1.332v-1.653z" fill="#E8C5AD"/><path fill-rule="evenodd" clip-rule="evenodd" d="M49.587 36.012l-5.314 7.43.048.82c-1.472-2.054-3-2.47-3.662-4.666-.873-2.892-.137-5.374 2.429-6.299.758-.273 1.658.267 2.378-.12 1.853-.994 2.658-.608 2.821.087.271 1.154 2.19-.496 2.757.599.56 1.08-.115 1.955-1.457 2.15z" fill="#8C969C"/><path fill-rule="evenodd" clip-rule="evenodd" d="M45.972 36.493a6.614 6.614 0 003.614-.481c1.87 3.142 1.936 7.556-1.382 8.403-1.836.469-4.304-.234-4.6-2.46-1.307-.132-1.884-2.252-1.184-2.803.734-.579 1.24.505 1.356 1.132l.32-.094-.171-1.689a4.09 4.09 0 002.047-2.008z" fill="#F2D9C8"/><path fill-rule="evenodd" clip-rule="evenodd" d="M45.972 36.493a6.614 6.614 0 003.614-.481 5.509 5.509 0 01-3.49 1.683c-1.55 2.591-.789 5.668 2.659 6.534a3.752 3.752 0 01-.55.186c-1.837.469-4.305-.234-4.602-2.46-1.306-.132-1.883-2.252-1.183-2.803.734-.579 1.24.505 1.356 1.132l.32-.094-.171-1.689a4.09 4.09 0 002.047-2.008z" fill="#E8C5AD"/><path fill-rule="evenodd" clip-rule="evenodd" d="M61.105 42.846l1.414-.324.528 2.306a.34.34 0 01-.255.407l-.752.172a.34.34 0 01-.407-.255l-.528-2.306z" fill="#F89037"/><path fill-rule="evenodd" clip-rule="evenodd" d="M59.704 38.061c3.226-.505 5.95-1.377 7.49-3.393l3.169 7.178-2.126 2.579c-3.02-1.888-5.213-1.768-7.994-1.504a2.404 2.404 0 01-2.67-2.094 2.46 2.46 0 01.224-1.322l.021-.045.003-.005c.046-.093.097-.182.154-.268l.026-.04.005-.007.026-.036.005-.007.028-.038.001-.002.03-.04.005-.006a2.71 2.71 0 01.128-.15l.004-.005.027-.029.013-.013.024-.025.016-.016.023-.023.015-.014.025-.024.016-.015.025-.023.013-.01.028-.025.04-.034.027-.022.017-.014.025-.019.02-.015.025-.02.02-.013.026-.018.021-.015.022-.016.028-.018.019-.012a.853.853 0 01.03-.019l.019-.011.032-.02.016-.008.013-.008.036-.02.016-.009.034-.017.021-.011.03-.015.023-.01.03-.015.021-.01.031-.013.022-.01.035-.014.017-.007.04-.015.015-.006.05-.018.022-.007.034-.011.022-.007.034-.01.024-.007.031-.009.024-.006.036-.009.02-.004.04-.01.018-.003.039-.008.02-.004a.92.92 0 01.06-.01z" fill="#9EBAC9"/><path fill-rule="evenodd" clip-rule="evenodd" d="M59.704 38.061c3.226-.505 5.95-1.377 7.49-3.393a15.717 15.717 0 00-.71 7.502 18.521 18.521 0 00-6.132-.173l-1.502-3.635.01-.006.036-.02.016-.009.033-.017.022-.01.03-.016.023-.01.03-.014.021-.01.031-.014.022-.01.035-.014.017-.007.039-.015.016-.006a1.78 1.78 0 01.05-.018l.022-.007.034-.011.022-.007.034-.01.024-.007.031-.008.024-.007.036-.009.02-.004.04-.009.018-.004.039-.007.02-.004a.428.428 0 01.059-.01z" fill="#C6E8FB"/><path fill-rule="evenodd" clip-rule="evenodd" d="M59.704 38.06c.175-.027.35-.055.521-.086-.14.98-.153 1.975-.036 2.958.072.662.197 1.317.376 1.959l-.322.03a2.404 2.404 0 01-2.67-2.094 2.552 2.552 0 012.13-2.766z" fill="#F89037"/><path fill-rule="evenodd" clip-rule="evenodd" d="M70.195 30.822c2.31-.257 4.6 3.297 5.116 7.937.514 4.64-.94 8.61-3.251 8.866-2.31.256-4.601-3.297-5.116-7.937-.515-4.64.94-8.61 3.251-8.866z" fill="#C6E8FB"/><path fill-rule="evenodd" clip-rule="evenodd" d="M70.253 31.34c2.023-.224 4.056 3.123 4.539 7.477.483 4.354-.766 8.065-2.79 8.29-2.023.224-4.056-3.123-4.539-7.477-.483-4.354.766-8.065 2.79-8.29z" fill="#C6E8FB"/><path d="M71.94 46.543c1.835-.203 2.959-3.646 2.51-7.688-.449-4.043-2.3-7.155-4.135-6.952-1.834.204-2.958 3.646-2.51 7.69.45 4.042 2.3 7.154 4.135 6.95z" fill="#A4D6F2"/><path fill-rule="evenodd" clip-rule="evenodd" d="M69.696 45.183c-.913-1.257-1.633-3.27-1.89-5.591a14.528 14.528 0 01.055-3.824c1.048-.025 2.124 2.087 2.424 4.794.22 1.978-.035 3.737-.589 4.621z" fill="#89C5E7"/><path fill-rule="evenodd" clip-rule="evenodd" d="M70.075 38.763l-2.365-.59a16.062 16.062 0 00.416 3.292l2.17-.795-.221-1.907z" fill="#9EBAC9"/><path fill-rule="evenodd" clip-rule="evenodd" d="M67.868 40.09l2.318-.374.11.954-2.17.795c-.104-.44-.19-.9-.258-1.375z" fill="#9EBAC9"/><path fill-rule="evenodd" clip-rule="evenodd" d="M70.075 38.763c.268-.03.532.373.59.9.06.527-.11.978-.378 1.008-.268.03-.532-.373-.59-.9-.06-.527.11-.979.378-1.008z" fill="#9EBAC9"/><path fill-rule="evenodd" clip-rule="evenodd" d="M60.473 37.931a11.319 11.319 0 00-.04 2.975c.073.664.2 1.32.378 1.964l-.246.022a12.293 12.293 0 01-.376-1.96 11.344 11.344 0 01.036-2.958c.084-.013.166-.028.248-.043z" fill="#8C969C"/><path fill-rule="evenodd" clip-rule="evenodd" d="M26.789 27.67l2.142 2.96a4.715 4.715 0 11-7.64 5.527l-2.143-2.96 1.815-1.314 2.142 2.962a2.483 2.483 0 003.456.555 2.483 2.483 0 00.555-3.456l-2.142-2.961 1.815-1.313z" fill="#C6E8FB"/><path d="M19.556 29.94l-1.814 1.312 1.45 2.005 1.815-1.312-1.45-2.006zm5.826-4.216l-1.815 1.313 1.451 2.006 1.815-1.313-1.451-2.006z" fill="#8C969C"/><path d="M26.325 46.527H19.1a3.101 3.101 0 00-3.1 3.101v6.304a3.1 3.1 0 003.101 3.1h7.224a3.101 3.101 0 003.1-3.1v-6.304a3.101 3.101 0 00-3.1-3.1z" fill="#C6E8FB"/><path d="M19.247 49.233h6.931a.997.997 0 01.998.998v5.098a.997.997 0 01-.996.997h-6.933a.997.997 0 01-.997-.997v-5.098a.997.997 0 01.997-.998z" fill="#fff"/><path fill-rule="evenodd" clip-rule="evenodd" d="M22.713 53.242l-3.732-3.277 3.732 2.37 3.732-2.37-3.732 3.277z" fill="#C6E8FB"/><path d="M68.585 23.268a5.565 5.565 0 10-3.246-10.645 5.565 5.565 0 003.246 10.646z" fill="#C6E8FB"/><path fill-rule="evenodd" clip-rule="evenodd" d="M68.017 16.066l-2.478 1.127c-.037-.02-.079-.058-.117-.083a1.062 1.062 0 10.103 1.699c.035-.035.072-.068.111-.098.079.037.155.078.229.123.672.377 1.38.751 2.052 1.122.154.085.093.036.141.207a1.061 1.061 0 10.291-1.053c-.06.06-.114.125-.163.194-.047-.009-1.598-.867-1.71-.93l-.572-.31-.013-.265c.397-.182.789-.362 1.193-.542.073-.033 1.15-.53 1.2-.538a1.062 1.062 0 10-.252-.877c-.014.08-.006.148-.015.224z" fill="#fff"/><path d="M59.124 23.327H35.427a.534.534 0 000 1.067h23.697a.533.533 0 100-1.067zm-23.697 2.987h23.698a.533.533 0 110 1.067H35.426a.533.533 0 110-1.067zm23.697 2.988H35.427a.534.534 0 000 1.067h23.697a.533.533 0 100-1.067z" fill="#9EBAC9"/><path d="M33.425 23.327h-.286a.534.534 0 100 1.067h.286a.533.533 0 100-1.067zm-.286 2.987h.286a.533.533 0 110 1.067h-.286a.534.534 0 010-1.067zm.286 2.988h-.286a.534.534 0 100 1.067h.286a.533.533 0 100-1.067z" fill="#42BBC4"/><path d="M59.125 72.449H35.427a.533.533 0 100 1.067h23.698a.533.533 0 000-1.067zm-.001 2.987H35.427a.534.534 0 000 1.068h23.697a.534.534 0 000-1.068z" fill="#9EBAC9"/><path d="M33.425 72.449h-.286a.533.533 0 100 1.067h.286a.533.533 0 000-1.067zm0 2.987h-.286a.534.534 0 100 1.068h.286a.534.534 0 000-1.068z" fill="#42BBC4"/><path d="M76.888 62.151H60.085a2.14 2.14 0 00-2.14 2.14v10.202a2.14 2.14 0 002.14 2.14h16.803a2.14 2.14 0 002.139-2.14V64.29a2.14 2.14 0 00-2.14-2.14z" fill="#C6E8FB"/><path fill-rule="evenodd" clip-rule="evenodd" d="M65.647 66.73l5.679 2.662-5.679 2.662V66.73z" fill="#fff"/><path fill-rule="evenodd" clip-rule="evenodd" d="M17.624 65.556h3.054l.782-1.298a.584.584 0 01.59-.38h3.043a.584.584 0 01.59.38l.781 1.298h3.056a1.135 1.135 0 011.131 1.131v7.736a1.134 1.134 0 01-1.131 1.131H17.624a1.134 1.134 0 01-1.131-1.131v-7.736a1.135 1.135 0 011.13-1.13z" fill="#C6E8FB"/><path fill-rule="evenodd" clip-rule="evenodd" d="M23.572 73.828a2.826 2.826 0 100-5.652 2.826 2.826 0 000 5.652z" fill="#fff"/></svg>