<svg width="99" height="70" fill="none" xmlns="http://www.w3.org/2000/svg"><path d="M98.76 22.38a2.38 2.38 0 11-4.76 0 2.38 2.38 0 014.76 0zm-85 43a2.38 2.38 0 11-4.76 0 2.38 2.38 0 014.76 0zM7.933 4.4H5.667V2.134a1.133 1.133 0 10-2.267 0V4.4H1.134a1.134 1.134 0 000 2.267H3.4v2.266a1.134 1.134 0 002.267 0V6.667h2.266a1.134 1.134 0 000-2.267z" fill="#42BBC4"/><path d="M33.451 0h26.377a5.033 5.033 0 015.034 5.033v59.934A5.033 5.033 0 0159.829 70H33.45a5.033 5.033 0 01-5.033-5.033V5.033A5.033 5.033 0 0133.451 0z" fill="#9EBAC9"/><path d="M59.687 1.594H33.593a3.806 3.806 0 00-3.806 3.805v59.202a3.806 3.806 0 003.806 3.805h26.094a3.806 3.806 0 003.806-3.805V5.399a3.806 3.806 0 00-3.806-3.805z" fill="#C6E8FB"/><path d="M39.94 1.077h13.4v.839a2.032 2.032 0 01-2.033 2.032h-9.334a2.032 2.032 0 01-2.033-2.032v-.84z" fill="#9EBAC9"/><path d="M48.308 1.927h-5.545v.45h5.545v-.45zm2.209.225a.32.32 0 11-.638 0 .32.32 0 01.639 0z" fill="#D5D4DE"/><path d="M54.936 3.328h-.264v.432h.264v-.432zm.378-.174h-.264v.606h.264v-.606zm.378-.169h-.264v.775h.264v-.775zm.378-.192h-.264v.967h.264v-.967zm.576.492a.84.84 0 011.176 0l.177-.178a1.092 1.092 0 00-1.531 0l.178.178z" fill="#78A8C2"/><path d="M56.883 3.522a.504.504 0 01.701 0l.178-.177a.755.755 0 00-1.057 0l.178.177z" fill="#78A8C2"/><path d="M57.12 3.76a.166.166 0 01.226 0l.179-.179a.42.42 0 00-.583 0l.179.179zm1.3-.85H60a.05.05 0 01.05.05v.633a.05.05 0 01-.05.05h-1.58a.05.05 0 01-.05-.05V2.96a.05.05 0 01.05-.05zm1.72.21h.036a.05.05 0 01.05.049v.216a.05.05 0 01-.05.05h-.036a.05.05 0 01-.05-.05v-.216a.05.05 0 01.05-.05z" fill="#78A8C2"/><path d="M62.768 10.305l.022 50.906a.83.83 0 01-.237.583.804.804 0 01-.573.24l-30.344.014a.804.804 0 01-.573-.24.83.83 0 01-.238-.583l-.022-50.906a.833.833 0 01.237-.582.81.81 0 01.573-.242l30.345-.013c.214 0 .42.087.573.24a.83.83 0 01.237.583zM57.45 7.063a.112.112 0 110-.224h2.274a.112.112 0 110 .223l-2.273.001zm.001.581a.112.112 0 110-.224l2.273-.001a.112.112 0 010 .224h-2.273zm0 .581a.112.112 0 010-.224L59.724 8a.112.112 0 010 .224h-2.273zm-23.854.37a.111.111 0 01-.079-.033l-.826-.825a.183.183 0 010-.258l.794-.794a.112.112 0 01.158.158l-.765.765.797.796a.112.112 0 01-.079.19zm12.136 57.851a.527.527 0 01-.526-.526v-1.555a.527.527 0 01.525-.526l1.555-.001a.526.526 0 01.527.526v1.555a.527.527 0 01-.526.526l-1.554.001zm1.554-2.384h-1.555a.303.303 0 00-.302.303v1.555a.304.304 0 00.303.302h1.555a.303.303 0 00.303-.303v-1.555a.304.304 0 00-.304-.302zm-10.919.254a.112.112 0 010-.224h1.496a.112.112 0 010 .223h-1.496zm0 .808a.111.111 0 01-.08-.19.111.111 0 01.08-.033l1.497-.001a.112.112 0 010 .224h-1.497zm0 .819a.112.112 0 010-.224h1.497a.112.112 0 110 .223h-1.497zm20.665.498a.112.112 0 01-.08-.033l-1.176-1.176 1.146-1.147a.112.112 0 11.158.159l-.988.988 1.019 1.018a.112.112 0 01-.08.191z" fill="#fff"/><path opacity=".36" d="M62.79 9.482H30.803v9.842H62.79V9.482z" fill="#C6E8FB"/><path d="M33.729 11.477h10.864a.316.316 0 01.315.316v1.825a.315.315 0 01-.315.315H33.729a.315.315 0 01-.316-.316v-1.824a.316.316 0 01.316-.316zm.001 3.831h16.833a.316.316 0 01.316.315v.597a.316.316 0 01-.316.316H33.73a.316.316 0 01-.315-.316v-.597a.316.316 0 01.315-.315zm23.739 1.022a2.323 2.323 0 11-.002-4.648h.002a2.324 2.324 0 010 4.648zm0-4.2h-.002a1.878 1.878 0 00-1.325 3.203 1.876 1.876 0 001.327.55 1.878 1.878 0 001.876-1.878 1.876 1.876 0 00-1.876-1.876z" fill="#fff"/><path d="M34.635 22.979h5.006a1.019 1.019 0 011.019 1.018v5.006a1.019 1.019 0 01-1.02 1.019h-5.005a1.019 1.019 0 01-1.019-1.019v-5.006a1.019 1.019 0 011.02-1.018z" fill="#50C2CA"/><path opacity=".36" d="M38.658 26.535a1.52 1.52 0 11-3.04 0 1.52 1.52 0 013.04 0z" fill="#C6E8FB"/><path d="M42.14 24.074h3.961a.254.254 0 01.255.255v.754a.254.254 0 01-.255.255h-3.96a.254.254 0 01-.255-.255v-.754a.255.255 0 01.254-.255zm-.253 3.206a.224.224 0 010-.448l7.628-.003a.223.223 0 110 .447l-7.628.004zm.001 1.596a.224.224 0 010-.447l12.438-.006a.223.223 0 110 .448l-12.438.005zm9.328-1.6a.223.223 0 110-.448l7.628-.003a.224.224 0 010 .448l-7.628.003z" opacity=".6" fill="#9EBAC9"/><path d="M34.644 43.47h5.006a1.019 1.019 0 011.019 1.019v5.005a1.019 1.019 0 01-1.02 1.02h-5.005a1.019 1.019 0 01-1.019-1.02V44.49a1.019 1.019 0 011.02-1.02z" fill="#C6E8FB"/><path opacity=".57" d="M38.667 47.026a1.518 1.518 0 01-2.594 1.076 1.52 1.52 0 112.594-1.076z" fill="#409BA2"/><path d="M42.15 44.565h3.96a.255.255 0 01.255.255v.754a.255.255 0 01-.255.255h-3.96a.255.255 0 01-.255-.255v-.754a.255.255 0 01.254-.255zm-.254 3.206a.224.224 0 010-.447l7.628-.004a.224.224 0 010 .448l-7.628.003zm0 1.596a.224.224 0 010-.447l12.44-.005a.223.223 0 110 .447l-12.44.005zm9.329-1.6a.224.224 0 110-.447l7.628-.004a.224.224 0 010 .448l-7.628.003z" opacity=".6" fill="#9EBAC9"/><path d="M34.64 33.2h5.005a1.019 1.019 0 011.02 1.02v5.005a1.019 1.019 0 01-1.02 1.02H34.64a1.019 1.019 0 01-1.018-1.02V34.22a1.019 1.019 0 011.018-1.02z" fill="#F89037"/><path opacity=".43" d="M37.142 38.277a1.52 1.52 0 100-3.04 1.52 1.52 0 000 3.04z" fill="#fff"/><path d="M42.145 34.295h3.96a.255.255 0 01.255.255v.754a.255.255 0 01-.255.255h-3.96a.254.254 0 01-.255-.255v-.754a.254.254 0 01.255-.255zm-.254 3.206a.224.224 0 110-.447l3.528-.002a.224.224 0 010 .448l-3.528.001zm.001 1.597a.224.224 0 010-.448l7.24-.003a.224.224 0 110 .447l-7.24.004zm5.004-1.599a.224.224 0 010-.448l7.045-.003a.224.224 0 010 .448l-7.045.003zm8.357-.004a.224.224 0 010-.447l3.528-.002a.224.224 0 010 .448l-3.528.001z" opacity=".6" fill="#9EBAC9"/><path opacity=".39" d="M69.09 39.766l14.307-.174a.769.769 0 01.777.759l.293 24.097a.768.768 0 01-.759.777l-14.306.174a.768.768 0 01-.777-.759l-.293-24.097a.768.768 0 01.759-.777z" fill="#fff"/><path d="M69.473 41.05a.327.327 0 11-.005-.653.327.327 0 01.005.653zm-.004-.522a.196.196 0 00-.19.236.196.196 0 10.19-.236zm1.094.514a.326.326 0 11-.005-.653.326.326 0 01.004.653zm-.004-.522a.196.196 0 00-.036.388.195.195 0 10.036-.388zm1.063.514a.326.326 0 11-.005-.652.326.326 0 01.005.652zm-.004-.522a.196.196 0 00-.19.236.196.196 0 10.19-.236zm3.031 4.973l-4.881.037a.13.13 0 01-.002-.26l4.88-.038a.129.129 0 01.094.038.13.13 0 01-.091.223zm-2.717 3.078l-2.14.016a.13.13 0 01-.123-.18.129.129 0 01.12-.081l2.141-.016a.13.13 0 01.002.26z" fill="#fff"/><path d="M56.487 21.249l17.225-.176a.768.768 0 01.776.76l.295 28.82a.768.768 0 01-.76.777l-17.226.176a.768.768 0 01-.776-.76l-.294-28.821a.769.769 0 01.76-.776z" fill="#fff"/><path d="M56.487 21.249l17.225-.176a.768.768 0 01.776.76l.295 28.82a.768.768 0 01-.76.777l-17.226.176a.768.768 0 01-.776-.76l-.294-28.821a.769.769 0 01.76-.776z" fill="#D1E9F8"/><path d="M74.551 21.822l.017 1.612-18.762.192-.017-1.65a.736.736 0 01.728-.743l17.253-.176a.772.772 0 01.781.765z" fill="#C6E8FB"/><path d="M72.236 22.04a.112.112 0 11-.001-.223l1.407-.014a.12.12 0 01.113.11.113.113 0 01-.068.104.113.113 0 01-.043.01l-1.407.014h-.001zm.004.36a.112.112 0 11-.001-.223l1.407-.014a.11.11 0 01.105.068.112.112 0 01-.06.147.114.114 0 01-.043.008l-1.407.015h-.001zm.003.36a.112.112 0 110-.224l1.407-.014a.112.112 0 11.002.224l-1.407.014h-.002zm-14.766.374a.11.11 0 01-.078-.032l-.517-.506a.156.156 0 01-.003-.22l.487-.497a.112.112 0 01.16.157l-.439.448.468.458a.111.111 0 01-.016.173.111.111 0 01-.062.019z" fill="#fff"/><path opacity=".36" d="M56.694 51.69a.866.866 0 01-.867-.862l-.034-6.101 19.017-.107.035 6.1a.868.868 0 01-.862.873l-17.284.097h-.005zm-.676-6.74l.033 5.877a.643.643 0 00.643.64h.004l17.283-.098a.644.644 0 00.64-.647l-.033-5.877-18.57.104z" fill="#fff"/><path d="M58.576 27.62l.002-1.352a.436.436 0 01.437-.436l13.548.017a.436.436 0 01.436.437l-.002 1.351a.436.436 0 01-.437.436l-13.548-.017a.436.436 0 01-.436-.437zm14.05 2.177l-13.684-.017a.369.369 0 010-.738l13.685.017a.367.367 0 01.368.37.369.369 0 01-.37.368zm-.002 1.699L58.94 31.48a.369.369 0 010-.737l13.685.017a.367.367 0 01.368.37.368.368 0 01-.37.367z" fill="#fff"/><path d="M60.424 33.988a.927.927 0 11-1.854-.002.927.927 0 011.854.002zm-.005 4.206a.928.928 0 11-1.856-.003.928.928 0 011.856.002zm-.006 4.081a.928.928 0 11-1.855-.002.928.928 0 011.855.002z" fill="#F89037"/><path d="M69.826 33.658l-8.876-.01a.112.112 0 110-.224l8.876.01a.112.112 0 01.112.113.112.112 0 01-.112.111zm-4.439.939l-4.438-.005a.112.112 0 01-.08-.191.112.112 0 01.08-.033l4.438.006a.112.112 0 01.112.112.112.112 0 01-.112.111zm4.433 3.405l-8.876-.011a.112.112 0 01-.111-.112.112.112 0 01.111-.112l8.877.011a.112.112 0 010 .224zm-4.439.938l-4.438-.005a.112.112 0 110-.224l4.439.006a.112.112 0 110 .224zm4.435 3.028l-8.876-.01a.11.11 0 01-.08-.034.111.111 0 010-.158.111.111 0 01.08-.033l8.876.012a.112.112 0 010 .223zm-4.44.939l-4.438-.006a.112.112 0 110-.223l4.439.005a.112.112 0 110 .224z" fill="#fff"/><path opacity=".36" d="M73.982 51.48l-17.283.098a.755.755 0 01-.76-.75l-.033-5.99 18.793-.106.034 5.99a.755.755 0 01-.75.759z" fill="#fff"/><path d="M60.18 47.308a.223.223 0 11-.002-.447l10.272-.058a.224.224 0 01.002.447l-10.271.058h-.001zm2.09 1.544a.223.223 0 11-.001-.447l6.107-.034h.001a.223.223 0 01.16.381.224.224 0 01-.158.066l-6.108.035z" fill="#fff"/><path d="M18.827 11.643h16.036a.36.36 0 01.36.36v4.661a.36.36 0 01-.36.361H18.827a.36.36 0 01-.36-.36v-4.661a.36.36 0 01.36-.36z" fill="#50C2CA"/><path d="M21.284 15.965a1.732 1.732 0 110-3.465 1.732 1.732 0 010 3.465z" fill="#F89037"/><path d="M21.13 14.883l-.647-.896a.17.17 0 01.229-.246.158.158 0 01.048.045l.413.57 2.06-2.06a.17.17 0 01.121-.05.171.171 0 01.121.292l-2.344 2.345z" fill="#fff"/><path opacity=".38" d="M33.057 13.557h-8.573a.112.112 0 010-.223h8.573a.112.112 0 010 .223zm-4.742 1.017h-3.831a.112.112 0 010-.223h3.83a.112.112 0 010 .223zm4.742 0h-3.83a.112.112 0 010-.223h3.83a.112.112 0 110 .223zm0 1.065h-8.573a.112.112 0 010-.224h8.573a.112.112 0 010 .224z" fill="#fff"/><path d="M59.01 53.835h16.035a.36.36 0 01.36.36v4.661a.36.36 0 01-.36.36H59.01a.36.36 0 01-.36-.36v-4.66a.36.36 0 01.36-.361z" fill="#50C2CA"/><path d="M61.467 58.157a1.733 1.733 0 110-3.466 1.733 1.733 0 010 3.466z" fill="#F89037"/><path d="M61.313 57.075l-.648-.896a.171.171 0 11.278-.2l.412.57 2.06-2.06a.17.17 0 11.243.241l-2.345 2.345zm-.552-.966z" fill="#fff"/><path opacity=".38" d="M73.24 55.75h-8.574a.112.112 0 01-.079-.191.111.111 0 01.079-.033h8.574a.112.112 0 01.112.112.112.112 0 01-.112.112zm-4.743 1.017h-3.831a.112.112 0 01-.079-.191.111.111 0 01.079-.033h3.831a.112.112 0 010 .224zm4.743 0h-3.831a.112.112 0 010-.224h3.83a.112.112 0 010 .224zm0 1.064h-8.574a.112.112 0 01-.079-.19.112.112 0 01.079-.034h8.574a.112.112 0 010 .224z" fill="#fff"/><path d="M10.768 17.43l20.463-.25a.769.769 0 01.777.76l.414 34.057a.768.768 0 01-.759.778l-20.462.248a.77.77 0 01-.778-.759l-.414-34.057a.769.769 0 01.76-.778z" fill="#C6E8FB"/><path opacity=".61" d="M32.082 17.926l.024 2.023-21.998.268-.025-2.062a.736.736 0 01.726-.744l20.49-.249a.772.772 0 01.783.764z" fill="#78B1D0"/><path opacity=".61" d="M11.598 19.21a.453.453 0 11-.007-.906.453.453 0 01.007.905zm-.005-.725a.272.272 0 10.004.543.272.272 0 00-.004-.543zm1.518.713a.454.454 0 11-.006-.907.454.454 0 01.006.907zm-.005-.724a.272.272 0 10.004.543.272.272 0 00-.004-.543zm1.476.713a.454.454 0 11-.006-.908.454.454 0 01.006.908zm-.005-.725a.272.272 0 10.004.544.272.272 0 00-.004-.544z" fill="#fff"/><path opacity=".61" d="M25.612 31.774l-2.11.016a.181.181 0 11-.003-.362l2.11-.016a.182.182 0 01.182.18.183.183 0 01-.11.168.18.18 0 01-.07.014zm-3.422-4.386l-10.167.077a.181.181 0 01-.003-.363l10.167-.077a.181.181 0 01.002.363z" fill="#C6E8FB"/><path opacity=".61" d="M22.159 23.36l-10.166.076a.182.182 0 01-.003-.362l10.166-.077a.182.182 0 01.183.18.182.182 0 01-.18.182z" fill="#fff"/><path opacity=".61" d="M25.547 23.334l-2.11.015a.182.182 0 01-.002-.362l2.11-.016a.18.18 0 01.168.11.18.18 0 01-.166.253z" fill="#409BA2"/><path opacity=".61" d="M25.578 27.362l-2.11.016a.181.181 0 01-.003-.363l2.11-.015a.18.18 0 01.168.11.179.179 0 01.002.139.182.182 0 01-.167.113z" fill="#fff"/><path opacity=".61" d="M29.052 27.335l-2.11.016a.182.182 0 01-.183-.18.181.181 0 01.18-.182l2.11-.016a.182.182 0 01.13.309.181.181 0 01-.127.053zm-10.267-1.968l-6.777.051a.181.181 0 11-.003-.362l6.777-.052a.18.18 0 01.169.111.179.179 0 010 .139.181.181 0 01-.166.113z" fill="#409BA2"/><path opacity=".61" d="M23.005 25.335l-2.973.023a.181.181 0 01-.003-.363l2.973-.022a.182.182 0 01.183.18.184.184 0 01-.052.128.181.181 0 01-.128.054z" fill="#F89037"/><path opacity=".61" d="M25.697 43.059l-2.11.016a.181.181 0 01-.003-.363l2.11-.016a.18.18 0 01.183.18.183.183 0 01-.11.168.18.18 0 01-.07.015zm-3.422-4.386l-10.166.077a.182.182 0 01-.183-.18.183.183 0 01.11-.168.18.18 0 01.07-.014l10.166-.077a.181.181 0 11.003.362z" fill="#C6E8FB"/><path opacity=".61" d="M22.223 31.8l-10.166.076a.181.181 0 01-.003-.362l10.166-.077a.18.18 0 01.168.11.18.18 0 01-.165.252z" fill="#fff"/><path opacity=".61" d="M23.037 29.58l-6.777.051a.18.18 0 01-.183-.18.181.181 0 01.18-.182l6.777-.051a.181.181 0 01.003.362z" fill="#409BA2"/><path opacity=".61" d="M15.013 29.64l-2.973.023a.182.182 0 01-.13-.308.181.181 0 01.127-.054l2.973-.023a.182.182 0 01.003.363zm7.231 5.005l-10.166.077a.182.182 0 01-.13-.308.181.181 0 01.127-.054l10.166-.077a.181.181 0 01.003.362z" fill="#F89037"/><path opacity=".61" d="M25.633 34.62l-2.11.015a.182.182 0 01-.183-.18.181.181 0 01.18-.182l2.11-.016a.182.182 0 01.13.308.181.181 0 01-.127.054z" fill="#409BA2"/><path opacity=".61" d="M25.663 38.648l-2.11.015a.183.183 0 01-.128-.052.181.181 0 01.126-.31l2.11-.016a.18.18 0 01.13.309.181.181 0 01-.128.053z" fill="#fff"/><path opacity=".61" d="M29.137 38.621l-2.11.016a.181.181 0 01-.002-.362l2.11-.016a.18.18 0 01.128.052.182.182 0 01.041.197.183.183 0 01-.167.113zM18.87 36.652l-6.777.052a.182.182 0 01-.13-.309.18.18 0 01.127-.054l6.778-.051a.181.181 0 01.002.362z" fill="#409BA2"/><path opacity=".61" d="M23.09 36.62l-2.973.023a.18.18 0 01-.182-.18.182.182 0 01.18-.182l2.973-.023a.181.181 0 11.002.363z" fill="#F89037"/><path opacity=".61" d="M22.308 43.084l-10.166.077a.181.181 0 11-.002-.362l10.166-.077a.18.18 0 01.168.11.18.18 0 01-.166.252z" fill="#fff"/><path opacity=".61" d="M23.123 40.865l-6.778.051a.181.181 0 01-.002-.362l6.777-.052a.184.184 0 01.129.052.183.183 0 01.04.198.18.18 0 01-.166.113z" fill="#409BA2"/><path opacity=".61" d="M15.098 40.925l-2.973.023a.181.181 0 11-.002-.362l2.973-.023a.181.181 0 01.002.362zm7.23 4.769l-10.166.077a.18.18 0 01-.168-.11.18.18 0 01.165-.253l10.167-.077a.182.182 0 01.13.309.181.181 0 01-.128.054z" fill="#F89037"/><path opacity=".61" d="M25.717 45.669l-2.11.016a.181.181 0 01-.003-.363l2.11-.016a.181.181 0 11.003.363z" fill="#409BA2"/><path opacity=".61" d="M25.757 50.998l-2.11.016a.181.181 0 11-.003-.363l2.11-.016a.182.182 0 01.183.18.184.184 0 01-.052.129.18.18 0 01-.128.054z" fill="#fff"/><path opacity=".61" d="M29.231 50.971l-2.11.016a.18.18 0 11-.002-.362l2.11-.016a.18.18 0 01.168.11.18.18 0 01-.166.252zm-10.277-3.269l-6.777.051a.18.18 0 01-.168-.11.18.18 0 01.165-.252l6.778-.052a.181.181 0 11.002.363z" fill="#409BA2"/><path opacity=".61" d="M23.174 47.67l-2.973.023a.182.182 0 01-.003-.363l2.974-.022a.181.181 0 01.002.362z" fill="#F89037"/></svg>