<svg width="113" height="81" fill="none" xmlns="http://www.w3.org/2000/svg"><path d="M12.76 2.38a2.38 2.38 0 11-4.76 0 2.38 2.38 0 014.76 0zm-8 64a2.38 2.38 0 11-4.76 0 2.38 2.38 0 014.76 0zM110.933 50.4h-2.266v-2.266a1.133 1.133 0 10-2.267 0V50.4h-2.266a1.134 1.134 0 100 2.267h2.266v2.266a1.134 1.134 0 002.267 0v-2.266h2.266a1.134 1.134 0 000-2.267z" fill="#42BBC4"/><path d="M41.841 36.455H29.945v8.453h11.896v-8.453z" fill="#7B889B"/><path d="M56.445 11H15.341c-.866 0-1.568.702-1.568 1.568v25.418c0 .866.702 1.568 1.568 1.568h41.104c.866 0 1.568-.702 1.568-1.568V12.568c0-.866-.702-1.568-1.568-1.568z" fill="#9BA6BC"/><path d="M56.624 12.433H15.162v25.688h41.462V12.433z" fill="#fff"/><path d="M51.168 14.969H17.68a.263.263 0 00-.263.263v20.96c0 .145.118.263.263.263h33.488a.263.263 0 00.263-.263v-20.96a.263.263 0 00-.263-.263z" fill="#A8AEBA"/><path d="M27.89 44.116H45.2a1.213 1.213 0 011.212 1.213v.37H27.129v-.821a.759.759 0 01.761-.762z" fill="#9BA6BC"/><path d="M51.165 14.488H17.682a.266.266 0 00-.265.266v1.755H51.43v-1.755a.265.265 0 00-.265-.266z" fill="#BCC3CE"/><path d="M21.023 17.03h-2.04a.326.326 0 00-.326.326v15.777c0 .18.145.325.325.325h2.04c.18 0 .326-.145.326-.325V17.356a.326.326 0 00-.325-.326z" fill="#D7E0E2"/><path d="M20.686 17.496h-1.367a.234.234 0 00-.234.233v1.367c0 .129.105.233.234.233h1.367a.234.234 0 00.233-.233v-1.367a.233.233 0 00-.233-.233zm0 2.262h-1.367a.234.234 0 00-.234.234v1.366c0 .13.105.234.234.234h1.367a.234.234 0 00.233-.233v-1.367a.233.233 0 00-.233-.234zm0 2.263h-1.367a.234.234 0 00-.234.233v1.367c0 .13.105.234.234.234h1.367a.234.234 0 00.233-.234v-1.366a.233.233 0 00-.233-.234zm0 2.262h-1.367a.234.234 0 00-.234.234v1.366c0 .13.105.234.234.234h1.367a.233.233 0 00.233-.234v-1.366a.233.233 0 00-.233-.234zm0 2.263h-1.367a.234.234 0 00-.234.233v1.367c0 .129.105.234.234.234h1.367a.234.234 0 00.233-.234V26.78a.233.233 0 00-.233-.233zm0 2.263h-1.367a.234.234 0 00-.234.233v1.367c0 .129.105.233.234.233h1.367a.234.234 0 00.233-.233v-1.367a.233.233 0 00-.233-.233z" fill="#BCC3CE"/><path d="M45.57 18.385H23.91V32.87h21.66V18.385z" fill="#fff"/><path d="M53.005 15.384h-5.429a.49.49 0 00-.49.49v5.619c0 .27.22.49.49.49h5.429c.27 0 .49-.22.49-.49v-5.62a.49.49 0 00-.49-.49z" fill="#D7E0E2"/><path d="M48.65 17.575H47.6v1.05h1.05v-1.05z" fill="#fff"/><path opacity=".75" d="M49.338 16.09h-1.05v1.051h1.05v-1.05z" fill="#8C969C"/><path d="M48.65 15.766H47.6v1.05h1.05v-1.05z" fill="#fff"/><path opacity=".75" d="M50.093 17.575h-1.05v1.05h1.05v-1.05z" fill="#8C969C"/><path opacity=".55" d="M51.538 17.575h-1.05v1.05h1.05v-1.05z" fill="#344468"/><path opacity=".55" d="M52.981 17.575h-1.05v1.05h1.05v-1.05z" fill="#46776E"/><path opacity=".55" d="M48.65 19.069H47.6v1.05h1.05v-1.05z" fill="#D2A69F"/><path opacity=".55" d="M50.093 19.069h-1.05v1.05h1.05v-1.05z" fill="#D9896D"/><path opacity=".55" d="M51.538 19.069h-1.05v1.05h1.05v-1.05z" fill="#B28E5B"/><path opacity=".55" d="M52.981 19.069h-1.05v1.05h1.05v-1.05z" fill="#7A4C5F"/><path opacity=".55" d="M48.65 20.563H47.6v1.05h1.05v-1.05z" fill="#B28A6F"/><path opacity=".55" d="M50.093 20.563h-1.05v1.05h1.05v-1.05z" fill="#625087"/><path opacity=".55" d="M51.538 20.563h-1.05v1.05h1.05v-1.05z" fill="#514263"/><path d="M52.473 24.044h-3.315a.508.508 0 00-.508.508v8.822c0 .28.227.508.508.508h3.315c.28 0 .508-.227.508-.508v-8.822a.508.508 0 00-.508-.508z" fill="#D7E0E2"/><path d="M52.981 25.127H48.65v1h4.331v-1zm0 1.337H48.65v1h4.331v-1zm0 1.338H48.65v1h4.331v-1zm0 1.338H48.65v1h4.331v-1zm0 1.337H48.65v1h4.331v-1zm0 1.337H48.65v1h4.331v-1z" fill="#BCC3CE"/><path d="M24.563 30.422c2.303.252 4.631.16 6.907-.274 1.605-.307 3.195-.785 4.83-.794.927.027 1.85.107 2.767.24a54.75 54.75 0 006.102.197m-14.847-.232c-.97-.123-1.047-.626-1.509-.773-.461-.146-.967-.368-1.134-.821a1.386 1.386 0 01.123-1.033c.172-.31.317-.636.434-.972.164-.63-.057-1.288-.127-1.936a3.412 3.412 0 01.653-2.482 2.49 2.49 0 012.326-.936c.309.043.591.196.796.43.328.422.237.906.246 1.296a2.91 2.91 0 00.8 1.827c.36.37.672.785.928 1.234.58 1.188-.224 1.631-.795 2.217-.445.456-.544 1.173-1.075 1.558-.421.303-1.09.326-1.665.39m.204-6.654a53.523 53.523 0 00-.179 7.343" stroke="#F89037" stroke-width=".5" stroke-miterlimit="10"/><path d="M30.299 27.316c.943-.513 1.471-1.464 1.496-2.928" stroke="#D7E0E2" stroke-width=".5" stroke-miterlimit="10"/><path d="M30.391 25.051a3.962 3.962 0 01-1.19-1.86m10.025 6.368c.043-1.705.376-5.57.54-7.268" stroke="#F89037" stroke-width=".5" stroke-miterlimit="10"/><path d="M39.375 27.965a2.33 2.33 0 01-.965-.615 4.67 4.67 0 01-1.205-2.015 2.737 2.737 0 01-.042-1.604 1.52 1.52 0 011.13-1.056 1.94 1.94 0 00.551-.1c.398-.194.407-.746.608-1.14a1.221 1.221 0 011.38-.583 1.347 1.347 0 01.941 1.194c.05.834-.644 1.584-.575 2.417.047.558.43 1.04.504 1.594.093.693-.176.993-.741 1.405a3.098 3.098 0 01-1.586.501m-.033-1.015c.802-.147 1.099-.84 1.07-2.124m-.936.78a7.282 7.282 0 01-.946-2.047" stroke="#F89037" stroke-width=".5" stroke-miterlimit="10"/><path d="M82.517 45.699H11.293v.978h71.224v-.978z" fill="#50C2CA"/><path d="M70.224 81l3.957-34.72h-.978L69.247 81h.977zm12.609 0l-3.956-34.72h.978L83.81 81h-.978z" fill="#50C2CA"/><path d="M82.811 74.259H70.104v.978h12.707v-.978zM10.978 81l3.957-34.72h-.978L10 81h.978zm12.609 0L19.63 46.28h.978L24.564 81h-.977z" fill="#50C2CA"/><path d="M23.565 74.259H10.857v.978h12.708v-.978z" fill="#50C2CA"/><path d="M76.921 45.7h-2.29l-4.38-6.558h2.288l4.382 6.557z" fill="#8C969C"/><path d="M71.931 45.7h-23.93a.626.626 0 01-.613-.744l2.992-15.328a.625.625 0 01.613-.505h23.93a.628.628 0 01.614.743l-2.991 15.328a.626.626 0 01-.615.505z" fill="#8C969C"/><path d="M49.783 42.903l2.174-11.14a.405.405 0 01.398-.328h20.39a.405.405 0 01.397.483l-2.174 11.14a.405.405 0 01-.398.328H50.18a.404.404 0 01-.397-.483z" fill="#fff"/><path d="M51.865 41.52c2.069.237 3.123.151 5.414-.257 1.619-.288 3.285-.737 4.824-.746.841.024 1.68.1 2.513.225 1.882.17 3.771.233 5.66.186m-13.864-.218c-.868-.117-.759-.587-1.14-.726-.38-.139-.775-.346-.768-.773a1.76 1.76 0 01.487-.97c.271-.289.525-.594.759-.913.38-.593.41-1.21.578-1.819a4.81 4.81 0 011.51-2.332c.761-.645 1.769-1.03 2.522-.879a.747.747 0 01.592.405c.156.397-.104.851-.235 1.217a2.144 2.144 0 00.092 1.717c.21.358.354.75.428 1.159.117 1.115-.799 1.532-1.547 2.083-.582.43-.934 1.104-1.572 1.463a4.44 4.44 0 01-1.705.368m2.592-6.252a63.197 63.197 0 00-2.817 6.898m1.011-2.752a4.782 4.782 0 002.461-2.75m-1.557.622a2.48 2.48 0 01-.449-1.747m7.122 5.981c.655-1.602 2.363-5.233 3.13-6.828" stroke="#F89037" stroke-width=".5" stroke-miterlimit="10"/><path d="M65.491 39.213a1.287 1.287 0 01-.684-.578 2.993 2.993 0 01-.406-1.894 3.06 3.06 0 01.538-1.504c.34-.5.855-.855 1.443-.992.188-.008.374-.04.554-.095.443-.181.65-.7.981-1.07a1.617 1.617 0 011.507-.547.832.832 0 01.454 1.122c-.254.782-1.177 1.488-1.412 2.27-.157.524.03.979-.101 1.498-.164.65-.525.933-1.204 1.32a3.95 3.95 0 01-1.67.47m.334-.954c.807-.139 1.336-.79 1.772-1.995m-1.159.731a5.159 5.159 0 01-.151-1.924" stroke="#F89037" stroke-width=".5" stroke-miterlimit="10"/><path d="M42.406 20.162s-.5 4.635-1.826 4.517c-2.347-.204-3.393-2.475-3.393-2.475s.18-4.671 1.051-4.843c.871-.171 4.568.726 4.168 2.801z" fill="#F2D9C8"/><path d="M39.551 21.596l-2.364 3.775a3.199 3.199 0 01-3.25 1.038c-2.18-.504-2.18-1.772-2.18-1.772l6.23-4.866" fill="#F2D9C8"/><path d="M41.253 20.939a.88.88 0 00-.183.735c.039.114.168.065.225.006a.763.763 0 00.147-.509c.002-.114-.017-.358-.189-.232z" fill="#8C969C"/><path d="M40.44 20.485s1.044-.191 1.426.19" stroke="#8C969C" stroke-miterlimit="10"/><path d="M42.165 20.902s.562 1.467.374 1.747c-.189.28-.875-.032-.875-.032" fill="#F2D9C8"/><path d="M40.386 23.09c-.026.423.204.678.533.669a.505.505 0 00.515-.368l-1.048-.302z" fill="#fff"/><path d="M39.682 22.49a1.317 1.317 0 01-.406-.139.365.365 0 01-.108-.086.312.312 0 01-.063-.18 1.89 1.89 0 01.14-.558c.047-.393.043-.79-.011-1.181a1.74 1.74 0 01.112-.732.634.634 0 01.548-.422c.232.004.512.238.73.032.043-.04.073-.099.127-.124.125-.058.24.085.339.181a.62.62 0 00.683.111.328.328 0 01.148-.051c.058.01.11.037.152.078.172.14.382.225.603.246a.726.726 0 00.594-.235c.171-.272.23-.6.163-.914a1.737 1.737 0 00-.285-.975 1.8 1.8 0 00-.91-.504 2.227 2.227 0 00-.396-.07.889.889 0 01-.449-.079.762.762 0 01-.16-.187 1.185 1.185 0 00-1.783-.15 1.764 1.764 0 00-1.443.364 1.826 1.826 0 00-.743.755.487.487 0 01-.108.188.48.48 0 01-.148.073 1.234 1.234 0 00-.729.77c-.15.472-.002.989-.092 1.474-.12.406-.282.798-.484 1.17a.69.69 0 00-.069.299c.017.285.318.453.58.567a.817.817 0 00.454.1.62.62 0 00.297-.162c.444-.396.595-1.076 1.105-1.382.18-.108.522-.207.606.061.081.262-.094.47-.175.71-.11.322-.2.651-.268.985-.101.34-.084.705.049 1.035.175.27.421.487.712.626.499.296 1.232.751 1.839.605a1.315 1.315 0 00.79-.713c.146-.384.253-.783.32-1.189-.467-.13-.942-.233-1.421-.308-.263-.04-.563-.037-.84-.09zm1.807 1.278a.497.497 0 01-.15.149.813.813 0 01-.595.108.864.864 0 01-.68-.92c-.008-.08 0-.195.083-.234a.229.229 0 01.113-.011c.433.061.862.15 1.283.267.063.034.067.12.062.191 0 .158-.04.314-.116.452v-.002z" fill="#8C969C"/><path d="M38.63 20.964c-.015-.498-.364-.798-.82-.441a1.048 1.048 0 00-.177 1.479.458.458 0 00.584.099" fill="#F2D9C8"/><path d="M52.83 77.462s.227 1.726.714 1.814c.488.088 4.19-1.537 4.27-2.066.08-.53-3.595-.558-3.595-.558s-.013.81-1.388.81z" fill="#8C969C"/><path d="M52.665 71.922l1.554 4.73a.799.799 0 01-.415.75.907.907 0 01-.974.06l-4.341-5.54" fill="#F2D9C8"/><path d="M27.795 49.174l3.927.896s12.813 1.659 14.478 4.967c2.998 5.959 7.295 19.418 7.295 19.418l-3.526 1.838s-5.93-7.766-9.784-15.933c-.655-.618-7.1.02-12.365.027-10.023.011-9.929-8.429-8.364-13.71" fill="#50C2CA"/><path d="M24.109 51.68s.402 3.813 5.14 4.693c2.97.552 12.662 1.696 12.662 2.233 0 .537 8.329 16.338 8.329 16.338" stroke="#409BA2" stroke-miterlimit="10"/><path d="M49.015 75.209l.597 1.307 3.883-2.061-.447-1.374-4.033 2.128z" fill="#50C2CA"/><path d="M61.178 76.146s.432 1.686.927 1.715c.495.028 3.975-2.03 3.99-2.565.015-.535-3.638-.122-3.638-.122s.087.806-1.279.972z" fill="#8C969C"/><path d="M60.347 70.666l2.112 4.509a.798.798 0 01-.32.793.907.907 0 01-.96.178l-4.977-4.978" fill="#F2D9C8"/><path d="M34.845 49.174l3.927.895s12.813 1.66 14.478 4.968c2.999 5.958 8.366 18.076 8.366 18.076l-3.526 1.838s-7-6.424-10.855-14.591c-.655-.618-7.991.021-13.257.027-10.023.011-10.99-6.473-9.426-11.753" fill="#50C2CA"/><path d="M32.383 54.27s3.97-.577 2.936-3.219m-4.16.629s.402 3.813 5.141 4.693c2.97.552 12.661 1.696 12.661 2.233 0 .537 9.4 14.996 9.4 14.996" stroke="#409BA2" stroke-miterlimit="10"/><path d="M57 74.003l.733 1.172 3.883-2.062-.527-1.33-4.088 2.22z" fill="#50C2CA"/><path d="M33.576 23.216S19.03 27.663 18.454 49.11c6.223 5.406 17.037 3.45 22.067 1.225-.595-2.777-2.246-10.048.384-17.132-.273-3.708-3.51-8.162-3.51-8.162s-2.473.15-3.82-1.825z" fill="#FBFAAA"/><path d="M55.558 41.127c.238-.291.486-.575.743-.85a4.54 4.54 0 01.991-.846 1.873 1.873 0 011.252-.267.273.273 0 01.15.065c.07.072.058.203.142.259a.222.222 0 00.15.02c.345-.038.766-.199.99.068.248.298-.049.733-.06 1.06-.014.414.078.87.096 1.292a.578.578 0 01-.016.212.523.523 0 01-.135.191c-1.229 1.237-3.66.987-4.941-.022" fill="#F2D9C8"/><path d="M57.984 39.861a974.006 974.006 0 00-1.936-3.944.338.338 0 01.421-.459.338.338 0 01.19.175s1.63 3.829 1.73 4.04c-.026.17-.295.29-.405.188z" fill="#8C969C"/><path d="M37.793 28.907l5.076 3.49c1.291 2.686 1.638 2.748 2.162 3.271 2.207 2.207 11.563 5.344 11.563 5.344l-.141 1.713s-10.312.317-14.46-1.727c-2.197-1.082-2.973-1.522-5.02-4.543l-1.078-3.697" fill="#F2D9C8"/><path d="M42.867 32.396c-1.113-2.314-1.979-4.432-3.496-5.95a7.082 7.082 0 00-1.976-1.407l-2.604 7.989s.883 1.507 2.182 3.425a28.427 28.427 0 005.894-4.057z" fill="#FBFAAA"/><path d="M36.973 36.455l-2.182-3.426" stroke="#FAF737" stroke-width=".75" stroke-miterlimit="10"/><path d="M30.723 61.702H29.38v8.365h1.342v-8.365z" fill="#9EBAC9"/><path d="M30.922 68.554h-1.74v4.043h1.74v-4.043z" fill="#9EBAC9"/><path d="M31.162 71.986h-2.221v5.305h2.221v-5.305zM21.733 77.4h-.587v1.78h.587V77.4zm17.19 0h-.587v1.78h.587V77.4zm-7.079 0h-.586v1.78h.586V77.4z" fill="#9EBAC9"/><path d="M39.456 76.801h-18.81a.489.489 0 000 .978h18.81a.489.489 0 000-.978zM38.63 81a1.281 1.281 0 100-2.562 1.281 1.281 0 000 2.562z" fill="#9EBAC9"/><path d="M38.63 80.257a.538.538 0 100-1.077.538.538 0 000 1.077zM31.55 81a1.281 1.281 0 100-2.562 1.281 1.281 0 000 2.562z" fill="#9EBAC9"/><path d="M31.55 80.257a.538.538 0 100-1.077.538.538 0 000 1.077zM21.44 81a1.281 1.281 0 100-2.562 1.281 1.281 0 000 2.562z" fill="#9EBAC9"/><path d="M21.44 80.257a.538.538 0 100-1.077.538.538 0 000 1.077zm14.3-17.987c-1.148.005-9.07.002-12.237 0-11.623 0-10.865-31.439-1.31-31.439h1.098c8.303 0 6.209 17.886 8.8 25.877 1.076 3.319 3.247 3.458 3.247 3.458l.402 2.103z" fill="#9EBAC9"/><path d="M23.503 60.164h18.51a1.267 1.267 0 011.267 1.266v.837H23.503v-2.103z" fill="#9EBAC9"/></svg>