<svg width="106" height="78" fill="none" xmlns="http://www.w3.org/2000/svg"><path d="M17.76 2.38a2.38 2.38 0 11-4.76 0 2.38 2.38 0 014.76 0zm88.001 17a2.38 2.38 0 11-4.761 0 2.38 2.38 0 014.761 0zm-1.828 33.02h-2.266v-2.266a1.133 1.133 0 10-2.267 0V52.4h-2.266a1.134 1.134 0 000 2.267H99.4v2.266a1.134 1.134 0 002.267 0v-2.266h2.266a1.134 1.134 0 000-2.267z" fill="#42BBC4"/><path d="M3.334 74.83H.427v-5.535H6.24v2.497l-2.906 3.039zm34.076-.414h2.907v-5.535h-5.812v2.497l2.906 3.038z" fill="#D1ECFA"/><path d="M41.383 23.563H1.972A1.972 1.972 0 000 25.534V69.02c0 1.09.883 1.972 1.972 1.972h39.411a1.972 1.972 0 001.972-1.972V25.534a1.972 1.972 0 00-1.972-1.971z" fill="#D1ECFA"/><path d="M39.743 27.601H3.613a.365.365 0 00-.365.365v38.622c0 .201.163.364.364.364h36.13a.365.365 0 00.366-.364V27.966a.365.365 0 00-.365-.365z" fill="#A6D3ED"/><path d="M33.619 68.058c8.467 0 15.33-6.864 15.33-15.33 0-8.468-6.863-15.331-15.33-15.331-8.467 0-15.33 6.863-15.33 15.33 0 8.467 6.863 15.33 15.33 15.33z" fill="#FFED86"/><path d="M42.82 61.928c5.08-5.081 5.08-13.32 0-18.4-5.082-5.082-13.32-5.082-18.401 0-5.081 5.08-5.081 13.319 0 18.4 5.081 5.08 13.32 5.08 18.4 0z" fill="#F8E267"/><path d="M40.426 41.623A13.013 13.013 0 0122.655 59.72a13.013 13.013 0 1017.771-18.097z" fill="#E8D56C"/><path d="M22.887 53.918a11.486 11.486 0 0120.59-7.001 11.488 11.488 0 00-19.612-.502 11.484 11.484 0 00.548 13.227 11.433 11.433 0 01-1.526-5.724z" fill="#F7DB5E"/><path d="M34.693 44.33v1.657c.665.107 1.21.327 1.633.66.422.332.826.843 1.209 1.53l-1.65.922c-.495-.902-1.144-1.353-1.944-1.353a1.78 1.78 0 00-1.235.44 1.415 1.415 0 00-.49 1.099 1.352 1.352 0 00.397.998c.26.26.783.566 1.573.922.58.257 1.146.55 1.691.875.371.214.71.48 1.007.79a3.54 3.54 0 01.955 2.495 3.994 3.994 0 01-.862 2.538 4.174 4.174 0 01-2.284 1.472v1.75h-1.48v-1.7c-1.105-.18-1.948-.56-2.528-1.141-.581-.581-1.01-1.477-1.286-2.69l1.86-.389c.254.857.564 1.469.93 1.835.384.35.895.525 1.532.525a2.16 2.16 0 001.556-.6c.411-.395.617-.906.617-1.531 0-.558-.172-1.007-.516-1.345a4.78 4.78 0 00-.774-.554 13.297 13.297 0 00-1.307-.672c-1.094-.491-1.812-.942-2.156-1.353a3.386 3.386 0 01-.626-3.34c.129-.35.32-.672.562-.952a3.5 3.5 0 01.91-.74 4.893 4.893 0 011.226-.49V44.33h1.48z" fill="#FFE346"/><path opacity=".12" d="M44.46 63.568c5.987-5.987 5.987-15.694 0-21.68-5.988-5.988-15.694-5.988-21.681 0-5.987 5.986-5.987 15.693 0 21.68s15.693 5.987 21.68 0z" fill="#8C969C"/><path d="M62.331 26.016l.974-.675c.101-.07.338-.317.47-.177.063.068.299.28.521.507.241.119.478.248.729.346.634.247 2.237.096 2.354.95.033.163.035.33.005.494-.04.128-.102.247-.185.353-.06.084-.135.234-.243.25-.113.016-.377-.12-.492-.157l-.988-.316c-.323-.103-.712-.197-.958-.002a1.41 1.41 0 01-.156.132.577.577 0 01-.233.06 4.22 4.22 0 01-.911.003c-.277-.032-.37-.221-.538-.412-.197-.224-.484-.294-.683-.511a.45.45 0 01-.127-.436.622.622 0 01.257-.268l.204-.141z" fill="#E5D1BD"/><path d="M74.286 29.564c-.689.235-1.415.308-2.274.242a22.82 22.82 0 01-6.254-1.385 6.3 6.3 0 01.629-2.648c1.73.262 3.476.398 5.226.405.853.003 1.6-.127 2.096-.79a33.378 33.378 0 002.932-4.661c.187-.36.373-.73.68-1.006.564-.505 1.482-.6 2.261-.334.78.265 1.422.848 1.848 1.516.305.48.514 1.03.451 1.561-.065.55-.409 1.017-.758 1.448a24.47 24.47 0 01-5.557 5.011 5.594 5.594 0 01-1.28.641z" fill="#A7D1E9"/><path d="M90.091 69.98l-.858.968a26.851 26.851 0 01-3.477-2.84c.598-.263.979-1.038 1.812-.427.27.198 2.467 2.363 2.523 2.3z" fill="#E5D1BD"/><path d="M88.667 70.93a.821.821 0 00.162.65c.395.534.39 1.14.482 1.793.03.215.042.477-.134.606-.087.064-.206.08-.284.155-.129.124-.076.358.065.47.15.098.33.143.51.126.2-.003.399-.025.594-.067.294-.063.6-.186.755-.444.155-.257.166-.627.284-.913.163-.377.269-.776.313-1.185.083-.807-.007-1.62-.087-2.423a.425.425 0 00-.078-.238.637.637 0 00-.265-.16c-.551-.219-1.388-.563-1.61.07-.095.27.016.593-.106.876-.097.232-.56.493-.601.684z" fill="#8C969C"/><path d="M70.301 57.225c-.14.327-.285.671-.253 1.026.04.447.347.819.647 1.153 4.243 4.741 9.561 8.369 14.822 11.947.091.062.196.126.303.101a.4.4 0 00.189-.137l3.8-4.137c.305-.332.629-.707.639-1.159.01-.45-.294-.838-.582-1.183l-7.367-8.83c-.143-.172-.292-.36-.302-.583.006-.165.052-.326.134-.47l2.855-6.091c.869-1.853 2.336-6.688 1.235-8.413-1.166-1.827-6.146-4.13-8.076-3.142-3.714 1.904-5.712 14.523-8.044 19.918z" fill="#42BBC4"/><path d="M80.112 75.163l-1.297-.275c.026-1.598.18-3.192.46-4.765.555.412 1.423.348 1.37 1.452-.016.357-.619 3.57-.533 3.588z" fill="#E5D1BD"/><path d="M78.515 74.352a.793.793 0 00-.46.503 2.44 2.44 0 01-.146.428.766.766 0 01-.29.253c-.515.31-.916.452-1.377.872a2.14 2.14 0 01-.556.365.402.402 0 00-.167.11.295.295 0 00-.032.232c.065.327.365.572.688.654.386.099.798.036 1.19.109.46.086.91-.007 1.34-.177.872-.344 1.61-.961 2.334-1.541a.416.416 0 00.159-.201.731.731 0 00-.013-.334c-.124-.63-.3-1.593-.959-1.458-.28.058-.491.336-.797.376-.251.033-.73-.257-.914-.19z" fill="#8C969C"/><path d="M74.872 70.19a45.315 45.315 0 017.241 1.888c1.027-1.68 1.57-3.645 2.038-5.6 1.199-5.017 1.974-10.152 2.748-15.279l1.204-7.97c.33-2.19 1.29-4.614-.872-6.138-.635-.447-1.377-.712-2.115-.955-.895-.295-1.814-.568-2.758-.577-.943-.009-1.926.277-2.579.957-.961 1.001-.99 2.542-1.051 3.928-.155 3.47-1.02 6.767-1.54 10.18-.54 3.536-.738 7.113-1.069 10.673-.277 2.99-.614 5.977-1.247 8.894z" fill="#42BBC4"/><path d="M83.437 17.945c3.526 2.191 5.63 8.385 6.203 11.914.74 4.556.28 9.235-.426 13.802a294.817 294.817 0 00-17.342-4.142c.625.13 2.511-3.382 2.79-3.912.725-1.377 1.563-3.123 1.649-4.718.18-3.325-.889-6.774-.048-10.078.594-2.334 2.55-3.816 4.855-3.65a5.05 5.05 0 012.319.784z" fill="#C6E8FB"/><path d="M49.914 57.59c11.154 0 20.196-9.04 20.196-20.194S61.068 17.2 49.914 17.2c-11.153 0-20.195 9.041-20.195 20.195 0 11.153 9.042 20.195 20.195 20.195z" fill="#FFED86"/><path d="M49.914 54.535c9.466 0 17.14-7.673 17.14-17.14 0-9.465-7.674-17.139-17.14-17.139-9.465 0-17.139 7.674-17.139 17.14 0 9.465 7.674 17.139 17.14 17.139z" fill="#F8E267"/><path d="M59.589 23.225a17.142 17.142 0 01-24.552 22.663A17.14 17.14 0 1059.59 23.225z" fill="#E8D56C"/><path d="M35.718 38.268a15.13 15.13 0 0127.542-7.88 15.128 15.128 0 00-21.247-6.1 15.13 15.13 0 00-4.657 21.61 15.06 15.06 0 01-1.638-7.63z" fill="#F7DB5E"/><path d="M51.87 26.416l-.106 2.18c.868.185 1.57.51 2.104.974.535.465 1.033 1.163 1.493 2.093l-2.23 1.106c-.594-1.22-1.418-1.854-2.471-1.906-.653-.032-1.204.135-1.653.499a1.863 1.863 0 00-.717 1.415 1.783 1.783 0 00.458 1.338c.325.358.995.796 2.01 1.315a20.79 20.79 0 012.17 1.26c.567.39.992.758 1.272 1.106.794.947 1.16 2.061 1.096 3.344a5.26 5.26 0 01-1.299 3.283c-.796.92-1.83 1.516-3.1 1.788l-.112 2.304-1.948-.096.11-2.236c-1.442-.31-2.526-.864-3.253-1.666-.726-.801-1.232-2.009-1.517-3.622l2.473-.391c.278 1.144.647 1.969 1.105 2.474.482.485 1.142.748 1.98.79.816.04 1.511-.19 2.086-.69.568-.493.871-1.15.912-1.974.036-.735-.161-1.335-.592-1.803a6.31 6.31 0 00-.983-.779c-.54-.353-1.1-.677-1.675-.969-1.407-.716-2.324-1.356-2.75-1.92-.68-.843-.992-1.829-.937-2.957a4.23 4.23 0 01.33-1.478c.192-.45.463-.862.8-1.215a4.605 4.605 0 011.245-.915 6.45 6.45 0 011.645-.566l.107-2.181 1.948.095z" fill="#E8D56C"/><path d="M64.353 30.573l.974-.675c.1-.07.337-.317.469-.177.064.068.299.28.521.507.242.119.478.248.729.345.634.248 2.237.098 2.354.952.034.162.035.33.005.493a1.08 1.08 0 01-.184.353c-.061.084-.135.234-.243.25-.114.016-.377-.12-.493-.157l-.988-.316c-.323-.103-.712-.197-.957-.002a1.428 1.428 0 01-.157.132.58.58 0 01-.233.06 4.226 4.226 0 01-.91.003c-.278-.032-.37-.221-.54-.412-.196-.223-.483-.294-.682-.511a.448.448 0 01-.127-.435.622.622 0 01.257-.268l.205-.142z" fill="#E5D1BD"/><path d="M76.307 34.121c-.689.235-1.414.307-2.273.242a22.824 22.824 0 01-6.255-1.385 6.303 6.303 0 01.629-2.649c1.73.263 3.477.398 5.226.406.853.003 1.6-.127 2.097-.79a33.391 33.391 0 002.932-4.661c.186-.36.373-.73.68-1.006.564-.505 1.481-.6 2.26-.335.78.265 1.422.848 1.848 1.517.305.479.515 1.03.452 1.56-.065.55-.41 1.017-.759 1.448a24.47 24.47 0 01-5.557 5.012 5.61 5.61 0 01-1.28.641z" fill="#C6E8FB"/><path d="M79.117 18.65l2.346-.478a11.953 11.953 0 00-.14-1.04c-.047-.266-.223-.657-.136-.907.102-.293.362-.57.484-.87.126-.31.219-.632.279-.96a7.091 7.091 0 00.096-1.631c-.02-.417-.232-.785-.344-1.187-.085-.304-.175-.617-.37-.866-.344-.435-.938-.58-1.492-.62-1.574-.11-4.38.613-4.214 2.637.048.444.133.883.252 1.312.227.913.328 2.662 1.447 2.97.315.088.67.016.963.163.516.259.524.986.829 1.476z" fill="#E5D1BD"/><path d="M81.859 15.1c.14-.269.274-.544.299-.589.296-.52.538-1.115.392-1.722-.094-.387-.336-.726-.608-1.023a5.276 5.276 0 00-4.074-1.679c-.908.045-2.108.62-2.135 1.677.849.081 1.225 1.162 2.004 1.51.36.161.771.148 1.165.132a.495.495 0 00.253-.056c.107-.07.143-.205.199-.318.108-.22.342-.39.585-.364.243.027.448.296.36.524-.09.231-.382.292-.625.346-.073.017-.162.053-.166.129a.181.181 0 00.073.129l1.912 1.852c.043.04.21-.25.366-.547z" fill="#A09187"/><path d="M77.695 11.098c.375.097.736.27 1.095.407.15.057.684.308.832.22.148-.089.01-.514.162-.694.432-.514.915.012 1.157.41.282.462.454 1.019.904 1.366.102.067.197.143.287.225.283.301.187.765.072 1.145.029-.095.279-.245.355-.32a6.562 6.562 0 001.003-1.243c.365-.587.546-1.267 1.011-1.788.176-.197.399-.35.578-.545.3-.329.466-.76.462-1.205-.176.409-.73.543-1.178.418-.448-.124-.816-.438-1.176-.733-.36-.294-.753-.588-1.212-.658-.416-.063-.828.068-1.247.08-.44.013-.877-.107-1.318-.157-1.27-.146-2.578.33-3.397 1.249a3.761 3.761 0 00-.917 2.14c-.042.463-.1.87.372 1.144-.163-.095.41-.95.488-1.036.317-.35.613-.496 1.078-.504.2 0 .398.025.59.079z" fill="#8C969C"/><path d="M34.898 72.517L3.702 66.922c-.138-.025-.249-.21-.249-.414V28.046c0-.204.112-.39.249-.415l31.196-5.595c.228-.04.413.14.413.403v49.675c0 .264-.185.444-.413.403z" fill="#D1ECFA"/><path d="M26.535 47.277c0 6.118-3.916 10.75-8.439 10.371-4.215-.353-7.427-4.987-7.427-10.37 0-5.385 3.213-10.02 7.427-10.371 4.523-.38 8.439 4.252 8.439 10.37z" fill="#A6D3ED"/><path d="M24.493 47.277c0 4.637-2.944 8.207-6.397 7.984-3.27-.21-5.797-3.78-5.797-7.984 0-4.203 2.527-7.774 5.797-7.984 3.453-.223 6.397 3.347 6.397 7.984z" fill="#A4BBBC"/><path d="M20.26 47.277c0 1.568-.978 2.817-2.164 2.79-1.163-.025-2.09-1.275-2.09-2.79 0-1.516.928-2.765 2.09-2.791 1.186-.026 2.163 1.223 2.163 2.79z" fill="#A6D3ED"/><path opacity=".11" d="M19.808 45.51c.2.448.301.933.298 1.424 0 1.566-.975 2.817-2.157 2.793-.667-.013-1.254-.429-1.634-1.064.36.822 1.031 1.388 1.81 1.405 1.186.027 2.164-1.223 2.164-2.791a3.348 3.348 0 00-.481-1.768z" fill="#fff"/><path d="M18.27 55.115v-1.773c0-.244-.289-.258-.289-.014v1.77c0 .243.29.262.29.017zm0-13.904v-1.773c0-.244-.289-.226-.289.018v1.77c0 .243.29.23.29-.015zm-5.862 6.322l1.24-.007c.174 0 .173-.367 0-.365l-1.241.01c-.17 0-.168.362.001.361zm10.482-.052l1.472-.007c.206-.001.204-.4-.002-.399l-1.472.012c-.2.002-.199.395.002.394zm-8.683 5.439l.88-1.207c.123-.168-.076-.43-.198-.263l-.878 1.208c-.12.165.075.428.196.263zm7.273-9.967l.991-1.359c.138-.189-.086-.45-.223-.26l-.988 1.357c-.135.186.084.448.22.262zm-7.262-1.262l.832 1.27c.116.176.325-.073.21-.25l-.836-1.27c-.115-.173-.32.077-.206.25zM21.07 52.14l.93 1.419c.13.197.364-.047.234-.245l-.934-1.42c-.128-.194-.357.052-.23.246zm9.6 3.859l-.015-.001c-.299-.02-.54-.322-.54-.677V39.588c0-.355.242-.657.54-.675l.015-.002c.3-.018.543.257.543.615v15.86c0 .357-.244.632-.543.613zm4.228-33.963h.8a.194.194 0 01.193.194v50.1a.194.194 0 01-.194.194h-.8V22.036zM4.865 37.781v-2.636a1.232 1.232 0 10-2.464 0v2.636h2.464zm-2.464.345v2.637a1.232 1.232 0 002.464 0v-2.637H2.401zm2.152 17.461v-2.636a1.231 1.231 0 10-2.464 0v2.636h2.464zm-2.463.345v2.636a1.232 1.232 0 102.463 0v-2.636H2.089z" fill="#A6D3ED"/></svg>