<svg width="124" height="82" fill="none" xmlns="http://www.w3.org/2000/svg"><path d="M123.761 45.38a2.38 2.38 0 11-4.761 0 2.38 2.38 0 014.761 0zM4.76 58.38a2.38 2.38 0 11-4.76 0 2.38 2.38 0 014.76 0zM108.933 3.4h-2.266V1.134a1.133 1.133 0 10-2.267 0V3.4h-2.266a1.134 1.134 0 100 2.267h2.266v2.266a1.134 1.134 0 002.267 0V5.667h2.266a1.134 1.134 0 000-2.267z" fill="#42BBC4"/><path d="M24.681 21.244h74.927a4.458 4.458 0 014.459 4.458v49.69a4.46 4.46 0 01-4.459 4.459H24.681a4.459 4.459 0 01-4.458-4.459V25.704a4.458 4.458 0 014.458-4.46z" fill="#A6D3ED"/><path fill-rule="evenodd" clip-rule="evenodd" d="M10 75.044v1.087c0 2.365 2.484 4.281 5.547 4.281h93.196c3.064 0 5.548-1.916 5.548-4.28v-1.088H10z" fill="#C6E8FB"/><path fill-rule="evenodd" clip-rule="evenodd" d="M23.495 24.979V70.47h76.9v-41.7h-76.9v-3.791z" fill="#FAFAFA"/><path d="M98.706 32.915H77.913v27.748h20.793V32.915z" fill="#EEEEEF"/><path d="M100.395 24.979h-76.9v3.79h76.9v-3.79z" fill="#409BA2"/><path d="M75.423 24.979H28.154v43.126h47.27V24.978z" fill="#EEEEEF"/><path fill-rule="evenodd" clip-rule="evenodd" d="M111.388 81.332zm.016-.009l-.014.008.014-.008zm.025-.014l-.023.013.023-.013zm.016-.008l-.01.005.01-.005zm.018-.01a.03.03 0 00-.008.004l.008-.005zm.022-.013l-.005.003.005-.003z" fill="#535671"/><path fill-rule="evenodd" clip-rule="evenodd" d="M113.761 77.962H10.531c.886 1.443 2.786 2.442 4.99 2.45h93.316a6.846 6.846 0 002.551-.515h.002l.013-.005h.002l.024-.01.006-.003.009-.004.01-.004.009-.004.017-.007.005-.003.016-.007a4.98 4.98 0 002.26-1.888z" fill="#A6D3ED"/><path d="M97.631 32.117h-20.9v27.424h20.9V32.117z" fill="#409BA2"/><path d="M84.04 34.973h-5.237v.328h5.236v-.328zm-2.471.81h-2.766v.328h2.766v-.328zm1.694.81h-4.46v.327h4.46v-.327zm.218 1.618H80.88v.328h2.602v-.328zm1.735.811h-2.53v.328h2.53v-.328zm2-3.239H82.5v.328h4.716v-.328zm2.925 0h-2.253v.328h2.253v-.328zm3.897 0h-3.04v.328h3.04v-.328zm-7.375.81h-2.654v.327h2.654v-.327z" fill="#fff"/><path fill-rule="evenodd" clip-rule="evenodd" d="M83.481 37.403H80.88v.328h4.916v-.328h-2.314z" fill="#fff"/><path d="M86.879 38.211h-2.603v.328h2.603v-.328zm2.531-.808h-2.892v.328h2.893v-.328zm2.096 0h-1.518v.328h1.518v-.328zm2.532 0h-1.88v.328h1.88v-.328zm-3.294.808h-3.287v.328h3.287v-.328zm1.473 0h-.982v.328h.982v-.328zm-4.395.811H85.94v.328h1.882v-.328zm-4.341 1.619H80.88v.328h2.602v-.328zm0 .811H80.88v.328h2.602v-.328zm3.139 0h-2.344v.328h2.344v-.328z" fill="#fff"/><path fill-rule="evenodd" clip-rule="evenodd" d="M86.883 40.641h-2.607v.328h4.467v-.328h-1.86z" fill="#fff"/><path d="M90.355 40.641h-1.169v.328h1.17v-.328zm1.947 0h-1.446v.328h1.447v-.328zm-.796.811h-2.605v.328h2.605v-.328zm-8.025.808H80.88v.328h2.602v-.328zm0 .81H80.88v.328h2.602v-.327zm2.314-.81h-1.519v.328h1.52v-.328zm3.253.81h-4.772v.328h4.772v-.327z" fill="#fff"/><path fill-rule="evenodd" clip-rule="evenodd" d="M89.41 42.26h-2.892v.328h4.988v-.328h-2.095z" fill="#fff"/><path d="M94.038 42.26h-1.88v.328h1.88v-.328zm-1.736.81h-2.676v.328h2.676v-.327zm-4.052-1.618h-1.108v.328h1.108v-.328zm-6.681 3.238h-2.766v.328h2.766v-.328zm1.694.808h-4.46v.329h4.46v-.328zm.218.812H80.88v.327h2.602v-.328zm0 .808H80.88v.33h2.602v-.33z" fill="#fff"/><path fill-rule="evenodd" clip-rule="evenodd" d="M86.285 44.69H82.5v.328h4.609v-.328h-.824z" fill="#fff"/><path d="M92.168 44.69h-4.203v.328h4.203v-.328zm-5.505.808h-2.654v.329h2.654v-.328zm-.363 1.62h-2.024v.33H86.3v-.33z" fill="#fff"/><path fill-rule="evenodd" clip-rule="evenodd" d="M88.29 46.31h-4.014v.327h5.892v-.328h-1.879z" fill="#fff"/><path d="M90.744 47.118H86.88v.33h3.865v-.33zm1.473 0h-.982v.33h.982v-.33zm-4.395.811H85.94v.327h1.882v-.327z" fill="#fff"/><path fill-rule="evenodd" clip-rule="evenodd" d="M85.216 47.929h-2.531v.327h9.057v-.327h-6.526z" fill="#fff"/><path d="M93.31 47.929h-1.046v.327h1.047v-.327zm-9.829 1.618H80.88v.328h2.602v-.328zm0 .811H80.88v.328h2.602v-.328zm5.079-.811h-4.284v.328h4.285v-.328zm-1.94.811h-2.344v.328h2.344v-.328zm3.735-.811h-1.169v.328h1.17v-.328zm1.947 0h-1.446v.328h1.447v-.328zm-.796.811h-2.605v.328h2.605v-.328zm-3.256 0h-1.108v.328h1.108v-.328zm-6.681 1.328h-2.766v.328h2.766v-.328zm1.694.809h-4.46v.328h4.46v-.328zm.218.81H80.88v.328h2.602v-.328zm0 .809H80.88v.328h2.602v-.328zm1.735.81h-2.53v.328h2.53v-.328zm-.099-3.238H82.5v.328h2.617v-.328z" fill="#fff"/><path fill-rule="evenodd" clip-rule="evenodd" d="M88.529 51.686h-2.742v.328h8.25v-.328H88.53z" fill="#fff"/><path d="M86.663 52.495h-2.654v.328h2.654v-.328zm-.363 1.619h-2.024v.328H86.3v-.328z" fill="#fff"/><path fill-rule="evenodd" clip-rule="evenodd" d="M88.23 53.305h-3.954v.328h5.892v-.328H88.23z" fill="#fff"/><path d="M92.086 53.305h-1.34v.328h1.34v-.328zm1.952 0h-1.3v.328h1.3v-.328zm-3.294.809H86.88v.328h3.865v-.328zm1.473 0h-.982v.328h.982v-.328zm-4.395.81H85.94v.328h1.882v-.328zm-4.341 2.43H80.88v.328h2.602v-.328z" fill="#fff"/><path fill-rule="evenodd" clip-rule="evenodd" d="M83.481 56.544H80.88v.328h7.682v-.328h-5.08z" fill="#fff"/><path d="M86.62 57.354h-2.344v.328h2.344v-.328zm3.735-.81h-1.169v.328h1.17v-.328zm1.947 0h-1.446v.328h1.447v-.328zm-.796.81h-2.605v.328h2.605v-.328zm-3.256 0h-1.108v.328h1.108v-.328z" fill="#fff"/><path d="M97.631 32.117h-20.9v1.629h20.9v-1.629z" fill="#50C2CA"/><path fill-rule="evenodd" clip-rule="evenodd" d="M96.626 32.828a.426.426 0 11-.853 0 .426.426 0 01.853 0zm-1.422 0a.426.426 0 11-.853 0 .426.426 0 01.853 0z" fill="#E7E5E4"/><path d="M74.168 12H26.435v55.035h47.733V12z" fill="#fff"/><path d="M74.168 12H26.435v2.66h47.733V12z" fill="#409BA2"/><path fill-rule="evenodd" clip-rule="evenodd" d="M72.836 13.264a.636.636 0 11-1.273 0 .636.636 0 011.273 0zm-2.122 0a.637.637 0 11-1.273 0 .637.637 0 011.273 0z" fill="#E7E5E4"/><path d="M74.168 19.445H26.435v3.097h47.733v-3.097z" fill="#50C2CA"/><path d="M71.491 20.314h-14.63v1.357h14.63v-1.357z" fill="#fff"/><path d="M33.963 20.536h-4.28v.914h4.28v-.914zm4.63 0h-4.28v.914h4.28v-.914zm4.63 0h-4.28v.914h4.28v-.914zm4.63 0h-4.28v.914h4.28v-.914z" fill="#FBFAAA"/><path d="M44.583 27.158h-8.692v7.043h8.692v-7.043z" fill="#F89037"/><path fill-rule="evenodd" clip-rule="evenodd" d="M72.448 20.476a.34.34 0 100 .68.34.34 0 000-.68zm-.322.026a.464.464 0 01.743.143.437.437 0 01-.1.485.463.463 0 01-.741-.144.435.435 0 01.098-.485zm.721.801l-.1-.1a.438.438 0 00.108-.108l.102.1-.11.108zm.538.291a.09.09 0 01.02.099.094.094 0 01-.151.03l-.397-.392.13-.128.398.391z" fill="#fff"/><path fill-rule="evenodd" clip-rule="evenodd" d="M72.42 21.094a.258.258 0 00.112-.024.03.03 0 00.01-.01.031.031 0 00-.006-.038.031.031 0 00-.027-.009.21.21 0 01-.089.02.152.152 0 01-.145-.088.03.03 0 00-.016-.022.031.031 0 00-.038.006.03.03 0 00-.007.012.03.03 0 00.004.026.213.213 0 00.202.127z" fill="#fff"/><path d="M54.25 27.102h-8.69v7.042h8.692v-7.042z" fill="#FBFAAA"/><path d="M63.919 27.066h-8.692v7.043h8.692v-7.043z" fill="#C6E8FB"/><path d="M42.683 58.169H30.238v.613h12.445v-.613zm0 1.111H30.238v.613h12.445v-.613zm0 1.111H30.238v.614h12.445v-.614zm0 1.112H30.238v.614h12.445v-.614zm0 1.111H30.238v.614h12.445v-.614zm0 1.111H30.238v.614h12.445v-.614zm0 1.111H30.238v.614h12.445v-.614zm13.991-6.667H44.23v.613h12.445v-.613zm0 1.111H44.23v.613h12.445v-.613zm0 1.111H44.23v.614h12.445v-.614zm0 1.112H44.23v.614h12.445v-.614zm0 1.111H44.23v.614h12.445v-.614zm0 1.111H44.23v.614h12.445v-.614zm0 1.111H44.23v.614h12.445v-.614zm14.073-6.667H58.302v.613h12.445v-.613zm0 1.111H58.302v.613h12.445v-.613zm0 1.111H58.302v.614h12.445v-.614zm0 1.112H58.302v.614h12.445v-.614zm0 1.111H58.302v.614h12.445v-.614zm0 1.111H58.302v.614h12.445v-.614zm0 1.111H58.302v.614h12.445v-.614z" fill="#C6C7C8"/><path d="M74.168 38.774H26.435v14.9h47.733v-14.9z" fill="#50C2CA"/><path d="M43.219 41.235h-12.31v9.974h12.31v-9.974z" fill="#FBFAAA"/><path d="M66.087 44.738H46.393v.328h19.694v-.328zm0 .81H46.393v.328h19.694v-.328zm0 .809H46.393v.328h19.694v-.328zm-6.719.811H46.393v.328h12.975v-.328z" fill="#fff"/><path fill-rule="evenodd" clip-rule="evenodd" d="M26.982 46.224l.586-.338.586-.338V46.9l-.586-.338-.586-.339zm46.638 0l-.585-.338-.586-.338V46.9l.586-.338.586-.339z" fill="#FBFAAA"/><path d="M42.683 54.377H30.238v3.222h12.445v-3.222z" fill="#F89037"/><path d="M56.675 54.51H44.229v3.222h12.446V54.51z" fill="#C6E8FB"/><path d="M70.747 54.544H58.302v3.222h12.445v-3.222z" fill="#FBFAAA"/></svg>