<svg width="1920" height="892" fill="none" xmlns="http://www.w3.org/2000/svg"><path d="M-53.382 104.957C-72.36 17.362-10.786-67.217 78.404-76.068L1821.82-249.086c150.95-14.981 226.21 177.962 104.97 269.145L868.579 815.951a150.003 150.003 0 01-121.376 26.838L170.354 720.064c-57.729-12.282-102.89-57.275-115.386-114.958l-108.35-500.149z" fill="url(#paint0_linear)"/><path d="M1111.77 200.433l.01-.004v.004h-.01zm-18.42-15.158l.42.075-.34.248-.08-.323zm9.73-21.234l.52-.374.11.49-.63-.116zm-18.29-15.454l1.06.197-.87.638-.19-.835zm46.79 8.874l.2.037-.16.125-.04-.162zm-37.08-29.836l.87-.636.19.834-1.06-.198zm-18.21-15.658l1.52.28-1.24.908-.28-1.188zm65.12 24.153l.26-.197.06.257-.32-.06zm-18.31-15.272l.63.116-.52.377-.11-.493zm-37.05-29.666l1.05-.772.23 1.01-1.28-.238zm-18.13-15.738l1.66.307-1.36.998-.3-1.305zm101.88 54.201l.01.001-.01.004v-.005zm-36.76-29.989l.34-.245.07.321-.41-.076zm-18.25-15.284l.62.118-.51.375-.11-.493zm-37.05-29.666l1.05-.774.23 1.011-1.28-.237zm-18.07-15.689l1.51.28-1.24.902-.27-1.182zm120.07 69.178l.01-.004v.006l-.01-.002zm-18.26-15.025h.01v.003l-.01-.004zm-36.63-30.017l.17-.123.04.16-.21-.037zm-18.3-15.187l.42.077-.34.248-.08-.325zm-36.86-29.799l.69-.503.15.661-.84-.158zm-18.07-15.411l.84.155-.69.503-.15-.658zm46.73 8.819l.14.028-.12.086-.02-.114zM827.36 437.881l.133.024-.109.081-.024-.105zm-28.576 6.568l.577-.419.126.552-.703-.133zm37.89-27.822l.919-.668.199.874-1.118-.206zm-56.782 11.829l2.7.499-2.216 1.623-.484-2.122zm-19.007 43.817l.246-.179.054.235-.3-.056zm56.95-71.863l3.21.594-2.635 1.926-.575-2.52zm-29.497 8.05l3.459-2.528.754 3.306-4.213-.778zm-37.747 27.789l2.923-2.137.638 2.8-3.561-.663zm-8.699 20.206l2.337.43-1.919 1.402-.418-1.832zm123.529-46.522l.338.063-.278.204-.06-.267zm-9.47-37.427l3.278.609-2.691 1.967-.587-2.576zm-29.8 8.15l3.908-2.856.851 3.734-4.759-.878zm-56.382 9.835l7.298 1.353-5.991 4.378-1.307-5.731zm-30.54 9.979l7.046-5.153 1.537 6.741-8.583-1.588zm-7.298 18.152l6.527 1.208-5.358 3.917-1.169-5.125zm-19.685 45.553l3.197-2.338.698 3.06-3.895-.722zm-8.714 19.978l2.891.534-2.373 1.737-.518-2.271zm19.12 16.024l.367-.269.081.353-.448-.084zm152.246-111.448l.808-.591.176.771-.984-.18zM864.623 352.7l3.459-2.533.756 3.315-4.215-.782zm-56.954 9.707l7.922 1.47-6.503 4.757-1.419-6.227zm-30.904 10.32l7.867-5.749 1.714 7.522-9.581-1.773zm-55.454 7.523l12.395 2.292-10.177 7.437-2.218-9.729zm-19.859 48.016l6.551-4.789 1.429 6.267-7.98-1.478zm-7.676 18.227l6.558 1.212-5.385 3.934-1.173-5.146zm-20.264 45.696l3.996-2.919.872 3.825-4.868-.906zm230.175-110.032l.019.005-.015.011-.004-.016zm-57.51-47.325l6.991 1.294-5.739 4.196-1.252-5.49zm-31.078 9.972l7.607-5.561 1.657 7.273-9.264-1.712zm-55.847 7.397l12.907 2.391-10.597 7.745-2.31-10.136zm-31.781 12.578l11.706-8.556 2.552 11.193-14.258-2.637zm-37.961 27.838l11.459-8.378 2.499 10.963-13.958-2.585zm-6.103 15.712l11.782 2.179-9.674 7.067-2.108-9.246zm-20.558 47.921l7.173-5.245 1.565 6.867-8.738-1.622zm-7.863 17.589l8.209 1.517-6.74 4.931-1.469-6.448zm9.84 37.732l4.328.802-3.553 2.596-.775-3.398zm19.098 16.619l1.163-.851.253 1.11-1.416-.259zm229.327-167.389l.521-.384.115.503-.636-.119zm-18.87-15.934l2.545.469-2.091 1.524-.454-1.993zm-9.478-37.434l5.502 1.02-4.516 3.303-.986-4.323zm-30.574 9.243l6.135-4.488 1.338 5.868-7.473-1.38zm-56.686 7.853l12.27 2.272-10.074 7.361-2.196-9.633zm-32.011 12.366l11.682-8.541 2.546 11.173-14.228-2.632zm-54.501 5.343l17.137 3.174-14.07 10.281-3.067-13.455zm-32.586 14.508l15.043-10.999 3.28 14.389-18.323-3.39zm-5.508 13.412l17.015 3.15-13.969 10.211-3.046-13.361zm-21.573 50.317l11.327-8.283 2.471 10.838-13.798-2.555zm-6.457 15.522l12.439 2.299-10.213 7.467-2.226-9.766zm-21.965 48.512l9.425-6.886 2.054 9.012-11.479-2.126zm-7.389 16.233l11.234 2.076-9.223 6.746-2.011-8.822zm18.154 19.687l6.11-4.469 1.333 5.845-7.443-1.376zm40.614 28.673l1.063.197-.873.637-.19-.834zM903.36 324.685l2.655-1.945.579 2.544-3.234-.599zm-9.898-36.117l4.797-3.505 1.046 4.585-5.843-1.08zm-56.96 8.67l10.45 1.932-8.58 6.269-1.87-8.201zm-31.903 11.587l10.564-7.724 2.304 10.106-12.868-2.382zm-55.187 5.647l16.785 3.106-13.781 10.072-3.004-13.178zm-32.644 14.374l14.935-10.919 3.256 14.287-18.191-3.368zm-53.229 3.863l20.028 3.705-16.444 12.018-3.584-15.723zm-23.236 51.939l15.176-11.096 3.309 14.514-18.485-3.418zm-5.602 13.231l17.506 3.241-14.372 10.505-3.134-13.746zm-22.419 50.713l12.735-9.308 2.776 12.176-15.511-2.868zm-6.441 14.44l15.043 2.784-12.351 9.029-2.692-11.813zm-23.276 49.889l12.581-9.194 2.743 12.032-15.324-2.838zm43.053 25.656l7.035 1.3-5.776 4.221-1.259-5.521zm18.864 17.789l2.917-2.13.635 2.786-3.552-.656zm288.415-239.073l1.589.296-1.304.953-.285-1.249zm-57.34-47.186l8.131 1.503-6.676 4.879-1.455-6.382zm-31.305 10.492l8.521-6.227 1.857 8.148-10.378-1.921zm-56.087 6.493l15.235 2.819-12.508 9.143-2.727-11.962zm-32.648 13.734l14.111-10.315 3.077 13.498-17.188-3.183zm-53.712 4.103l19.714 3.647-16.186 11.83-3.528-15.477zm-32.837 15.626l16.751-12.242 3.652 16.019-20.403-3.777zm-38.535 27.97l17.281-12.628 3.766 16.523-21.047-3.895zm-5.29 11.856l20.671 3.826-16.972 12.4-3.699-16.226zm-23.745 52.321l16.208-11.848 3.534 15.503-19.742-3.655zm-5.533 12.489l19.268 3.566-15.82 11.563-3.448-15.129zm-23.83 51.76l15.58-11.386 3.396 14.898-18.976-3.512zm-6.08 12.523l19.481 3.607-15.994 11.694-3.487-15.301zm9.888 37.777l15.476 2.863-12.707 9.286-2.769-12.149zm17.803 21.518l8.84-6.464 1.928 8.458-10.768-1.994zm41.827 27.55l3.116.578-2.559 1.868-.557-2.446zm19.101 16.121l.512-.377.111.49-.623-.113zm287.695-295.81l1.62-1.185.354 1.551-1.974-.366zm-18.646-16.603l4.035.746-3.312 2.424-.723-3.17zm-9.159-37.17l6.184 1.143-5.077 3.709-1.107-4.852zm-30.781 9.569l6.779-4.955 1.478 6.484-8.257-1.529zm-56.4 7.592l12.75 2.358-10.468 7.651-2.282-10.009zm-32.392 12.648l12.451-9.1 2.713 11.905-15.164-2.805zm-54.476 4.768l18.527 3.426-15.211 11.12-3.316-14.546zm-32.919 15.154l16.228-11.862 3.538 15.52-19.766-3.658zm-52.65 3.335l20.987 3.882-17.231 12.595-3.756-16.477zm-32.911 16.168l17.529-12.811 3.821 16.76-21.35-3.949zm-5.523 11.468l21.735 4.021-17.845 13.045-3.89-17.066zm-24.64 52.967l17.982-13.144 3.919 17.192-21.901-4.048zm-5.279 11.319l21.96 4.063-18.03 13.177-3.93-17.24zm-24.962 53.13l18.54-13.552 4.041 17.73-22.581-4.178zm-5.253 10.906l22.946 4.246-18.839 13.772-4.107-18.018zm-25.129 53.575l19.288-14.098 4.204 18.445-23.492-4.347zm-5.045 10.498l23.826 4.406-19.561 14.303-4.265-18.709zm15.714 25.444l16.106-11.775 3.511 15.404-19.617-3.629zm44.371 23.998l10.306 1.908-8.461 6.187-1.845-8.095zm18.567 19.214l5.059-3.703 1.103 4.842-6.162-1.139zm40.093 29.059l.414.078-.34.246-.074-.324zm326.518-323.986l.756.142-.621.451-.135-.593zm-38.74-29.229l3.415-2.496.745 3.267-4.16-.771zm-9.604-36.183l5.159-3.768 1.124 4.93-6.283-1.162zm-56.679 8.623l10.412 1.923-8.549 6.249-1.863-8.172zm-31.671 11.516l10.232-7.477 2.231 9.786-12.463-2.309zm-55.417 5.719l16.746 3.096-13.749 10.052-2.997-13.148zm-32.824 14.395l15.156-11.074 3.303 14.489-18.459-3.415zm-53.191 3.724l20.349 3.763-16.707 12.213-3.642-15.976zm-32.775 15.872l17-12.423 3.706 16.257-20.706-3.834zm-52.12 3.169l21.094 3.903-17.318 12.661-3.776-16.564zm-25.07 52.8l18.229-13.322 3.973 17.429-22.202-4.107zm-5.404 11.028l22.743 4.206-18.674 13.646-4.069-17.852zm-25.522 53.58l19.714-14.41 4.298 18.854-24.012-4.444zm-5.181 10.056l24.965 4.619-20.497 14.983-4.468-19.602zm-26.076 54.626l21.644-15.822 4.719 20.698-26.363-4.876zm-4.473 9.137l26.806 4.957-22.009 16.087-4.797-21.044zm-26.142 55.396l22.71-16.595 4.95 21.714-27.66-5.119zm45.865 20.099l18.934 3.504-15.545 11.363-3.389-14.867zm17.138 23.098l11.579-8.464 2.524 11.074-14.103-2.61zm42.924 26.327l5.472 1.016-4.492 3.282-.98-4.298zm18.939 17.131l1.986-1.456.433 1.9-2.419-.444zm365.502-351.918l1.033-.756.225.989-1.258-.233zm-18.577-16.091l2.757.511-2.263 1.656-.494-2.167zm-56.974-46.882l8.36 1.545-6.863 5.019-1.497-6.564zm-31.253 10.575l8.57-6.262 1.867 8.194-10.437-1.932zm-55.722 6.755l14.401 2.664-11.823 8.643-2.578-11.307zm-32.51 13.357l13.485-9.856 2.939 12.893-16.424-3.037zm-53.822 4.503l18.811 3.478-15.444 11.293-3.367-14.771zm-32.716 15.223l16.106-11.772 3.512 15.405-19.618-3.633zm-52.245 3.766l19.724 3.647-16.195 11.836-3.529-15.483zm-32.328 15.513l16.068-11.744 3.503 15.367-19.571-3.623zm-38.905 28.054l17.099-12.497 3.728 16.351-20.827-3.854zm-5.867 11.523l21.798 4.032-17.896 13.083-3.902-17.115zm-25.674 53.225l19.417-14.193 4.233 18.568-23.65-4.375zm-5.296 10.191l24.706 4.572-20.284 14.824-4.422-19.396zm-26.942 54.715l22.677-16.576 4.944 21.689-27.621-5.113zm-4.48 8.329l28.764 5.322-23.616 17.261-5.148-22.583zm-26.782 56.354l24.617-17.995 5.367 23.546-29.984-5.551zm-3.865 7.331l30.845 5.704-25.325 18.512-5.52-24.216zm9.627 37.554l27.507 5.09-22.584 16.508-4.923-21.598zm15.208 27.079l18.747-13.703 4.086 17.927-22.833-4.224zm45.322 22.729l12.856 2.382-10.555 7.713-2.301-10.095zm18.244 20.34l6.853-5.013 1.494 6.554-8.347-1.541zm40.72 28.181l2.188.408-1.796 1.312-.392-1.72zm19.114 15.734l.001-.002.001.004-.002-.002zm384.527-394.793l.41.076-.34.248-.07-.324zm-38.228-29.488l2.531-1.851.553 2.423-3.084-.572zm-18.243-16.983l4.727.876-3.879 2.843-.848-3.719zm-9.029-37.063l6.546 1.213-5.374 3.931-1.172-5.144zm-30.616 9.684l6.747-4.932 1.471 6.451-8.218-1.519zm-56.096 7.865l11.92 2.205-9.787 7.154-2.133-9.359zm-31.776 12.165l11.174-8.164 2.435 10.683-13.609-2.519zm-54.693 5.58l16.676 3.086-13.691 10.009-2.985-13.095zm-32.318 14.254l14.435-10.55 3.146 13.802-17.581-3.252zm-52.88 4.538l18.201 3.367-14.944 10.925-3.257-14.292zm-31.964 14.802l14.765-10.789 3.217 14.115-17.982-3.326zm-52.304 4.759l17.353 3.209-14.248 10.414-3.105-13.623zm-31.537 14.353l13.737-10.037 2.994 13.133-16.731-3.096zm-7.184 13.05l18.824 3.481-15.454 11.301-3.37-14.782zm-25.894 52.048l18.131-13.253 3.953 17.339-22.084-4.086zm-5.658 10.888l23.211 4.295-19.056 13.931-4.155-18.226zm-26.651 54.035l21.492-15.709 4.685 20.55-26.177-4.841zm-5.053 8.778l27.986 5.18-22.978 16.791-5.008-21.971zm-27.858 56.281l25.658-18.756 5.594 24.54-31.252-5.784zm-3.734 6.625l32.478 6.008-26.665 19.492-5.813-25.5zm-27.425 58.032l27.461-20.07 5.985 26.256-33.446-6.186zm-2.887 5.926l33.704 6.235-27.672 20.231-6.032-26.466zm12.717 30.208l25.409-18.576 5.54 24.301-30.949-5.725zm46.731 18.71l21.81 4.036-17.906 13.089-3.904-17.125zm16.847 24.355l13.498-9.867 2.942 12.906-16.44-3.039zm43.587 25.38l7.4 1.369-6.076 4.441-1.324-5.81zm18.564 18.009l3.518-2.575.768 3.368-4.286-.793zm443.172-407.994l.69-.504.15.661-.84-.157zm-18.51-15.766l1.94.358-1.59 1.162-.35-1.52zm-38.854-28.716l4.196-3.068.915 4.013-5.111-.945zm-9.101-36.297l5.262-3.844 1.146 5.029-6.408-1.185zm-56.208 8.927l9.411 1.741-7.726 5.65-1.685-7.391zm-31.198 10.998l9.057-6.62 1.975 8.664-11.032-2.044zm-55.118 6.874l13.779 2.549-11.313 8.268-2.466-10.817zm-31.832 12.946l12.236-8.94 2.666 11.697-14.902-2.757zm-53.552 5.696l15.77 2.916-12.948 9.465-2.822-12.381zm-31.754 13.749l13.189-9.641 2.876 12.615-16.065-2.974zm-52.648 5.699l15.268 2.822-12.536 9.164-2.732-11.986zm-31.316 13.441l12.329-9.013 2.688 11.792-15.017-2.779zm-52.697 6.322l13.776 2.55-11.311 8.268-2.465-10.818zm-25.629 49.903l15.089-11.026 3.289 14.429-18.378-3.403zm-6.905 12.228l20.662 3.822-16.964 12.403-3.698-16.225zm-26.142 52.863l19.446-14.213 4.239 18.596-23.685-4.383zm-5.549 9.959l25.405 4.701-20.858 15.248-4.547-19.949zm-27.833 55.21l24.252-17.729 5.287 23.196-29.539-5.467zm-4.428 7.146l31.591 5.847-25.937 18.958-5.654-24.805zm-28.435 57.901l28.356-20.725 6.18 27.113-34.536-6.388zm-2.693 5.385l34.905 6.457-28.658 20.948-6.247-27.405zm-27.563 59.067l28.937-21.149 6.308 27.672-35.245-6.523zm46.256 15.584l29.649 5.487-24.342 17.795-5.307-23.282zm14.6 28.103l20.707-15.135 4.513 19.8-25.22-4.665zm45.986 21.756l14.855 2.749-12.196 8.914-2.659-11.663zm17.841 21.254l8.459-6.186 1.844 8.092-10.303-1.906zm41.454 27.536l3.344.622-2.744 2.007-.6-2.629zm19.061 16.224l.691-.506.151.664-.842-.158zm461.317-450.672l.41.078-.34.249-.07-.327zm-37.76-29.593l1.9-1.391.42 1.824-2.32-.433zm-18.311-16.545l3.716.686-3.051 2.233-.665-2.919zm-56.17-46.221l7.272 1.344-5.971 4.364-1.301-5.708zm-30.481 9.95l6.949-5.078 1.515 6.645-8.464-1.567zm-55.596 8.115l11.032 2.043-9.057 6.624-1.975-8.667zm-31.145 11.658l9.847-7.197 2.146 9.416-11.993-2.219zm-54.426 6.83l13.503 2.498-11.087 8.104-2.416-10.602zm-31.226 12.694l11.27-8.235 2.456 10.774-13.726-2.539zm-53.38 6.586l13.517 2.501-11.097 8.112-2.42-10.613zm-30.808 12.605l10.715-7.831 2.336 10.248-13.051-2.417zm-53.258 7.12l12.155 2.249-9.98 7.296-2.175-9.545zm-30.382 11.945l9.415-6.882 2.054 9.007-11.469-2.125zm-39.367 28.159l11.073-8.092 2.414 10.59-13.487-2.498zm-8.003 14.45l15.89 2.938-13.047 9.536-2.843-12.474zm-26.111 50.883l16.869-12.329 3.677 16.132-20.546-3.803zm-6.277 11.363l22.409 4.147-18.398 13.449-4.011-17.596zm-26.927 53.764l21.437-15.666 4.672 20.498-26.109-4.832zm-5.208 8.691l28.283 5.238-23.221 16.97-5.062-22.208zm-28.602 56.574l26.822-19.603 5.846 25.647-32.668-6.044zm-3.685 5.765l34.536 6.389-28.356 20.723-6.18-27.112zm-28.137 59.045l29.514-21.574 6.434 28.226-35.948-6.652zm-2.349 4.767l36.212 6.699-29.73 21.736-6.482-28.435zm9.122 37.143l34.155 6.32-28.042 20.496-6.113-26.816zm12.626 30.412l25.775-18.839 5.618 24.647-31.393-5.808zm46.587 18.309l22.86 4.233-18.768 13.717-4.092-17.95zm16.34 24.907l14.742-10.776 3.212 14.094-17.954-3.318zm43.709 24.511l9.426 1.746-7.739 5.656-1.687-7.402zm18.594 18.841l4.554-3.328.993 4.355-5.547-1.027zm39.882 29.278l.002.001-.001.004-.001-.005zm480.399-493.218l.62-.453.13.593-.75-.14zm-18.39-15.615l1.5.276-1.23.907-.27-1.183zm-38.23-29.038l3.11-2.274.68 2.975-3.79-.701zm-17.92-17.163l4.998.923-4.104 3.002-.894-3.925zm-8.46-36.599l5.375.995-4.413 3.226-.962-4.221zm-29.98 9.054l5.262-3.845 1.147 5.029-6.409-1.184zm-55.837 9.232l8.464 1.567-6.949 5.078-1.515-6.645zm-30.605 10.472l7.752-5.667 1.69 7.415-9.442-1.748zm-54.935 8.037l10.861 2.01-8.917 6.518-1.944-8.528zm-30.762 11.498l9.237-6.755 2.014 8.835-11.251-2.08zm-54.026 7.632l11.342 2.097-9.312 6.806-2.03-8.903zM687.8 181.963l9.131-6.674 1.99 8.732-11.121-2.058zm-53.729 7.96l10.381 1.922-8.523 6.23-1.858-8.152zm-30.124 11.154l8.12-5.937 1.77 7.766-9.89-1.829zm-53.948 8.567l9.036 1.671-7.419 5.422-1.617-7.093zm-30.149 10.603l7.44-5.438 1.622 7.115-9.062-1.677zm-8.837 16.585l11.18 2.066-9.18 6.707-2-8.773zm-24.999 48.685l12.861-9.402 2.805 12.303-15.666-2.901zm-7.512 13.461l18.008 3.331-14.784 10.81-3.224-14.141zm-26.538 51.858l18.571-13.578 4.049 17.764-22.62-4.186zm-5.779 10.449l24.342 4.505-19.985 14.61-4.357-19.115zm-27.736 54.75l23.557-17.223 5.136 22.532-28.693-5.309zm-4.679 7.479l30.926 5.723-25.391 18.557-5.535-24.28zm-28.919 57.736l28.657-20.952 6.249 27.41-34.906-6.458zm-2.915 4.968l36.035 6.667-29.586 21.624-6.449-28.291zm-27.711 59.568l29.737-21.732 6.482 28.435-36.219-6.703zm-1.91 4.96l35.507 6.566-29.152 21.312-6.355-27.878zm11.294 31.275l28.291-20.68 6.167 27.055-34.458-6.375zm46.142 15.992l28.726 5.312-23.585 17.238-5.141-22.55zm14.688 27.699l20.1-14.691 4.381 19.219-24.481-4.528zm45.24 21.612l15.61 2.889-12.817 9.365-2.793-12.254zm17.193 21.713l9.736-7.121 2.124 9.317-11.86-2.196zm42.122 27.097l4.049.748-3.325 2.43-.724-3.178zm19.069 16.511l1.053-.77.23 1.009-1.283-.239zM1104.35 221.31v-.004.004zm-18.42-15.158l.42.077-.34.249-.08-.326zm-37.49-29.656l1.54-1.122.33 1.467-1.87-.345zm-18.21-16.182l2.78.515-2.28 1.674-.5-2.189zm-38.251-28.503l3.824-2.796.834 3.659-4.658-.863zm-8.374-36.461l3.908-2.856.851 3.734-4.759-.878zm-56.029 10.126l6.405 1.186-5.259 3.842-1.146-5.028zm-29.995 9.483l5.831-4.262 1.271 5.574-7.102-1.312zm-55.44 9.114l8.532 1.578-7.006 5.119-1.526-6.697zm-30.309 10.432l7.387-5.398 1.609 7.061-8.996-1.663zm-54.682 8.528l9.529 1.765-7.824 5.717-1.705-7.482zm-30.135 10.806l7.681-5.618 1.675 7.348-9.356-1.73zm-54.262 8.649l9.009 1.667-7.397 5.405-1.612-7.072zm-29.876 10.531l7.055-5.159 1.538 6.748-8.593-1.589zm-54.256 9.137l7.817 1.448-6.417 4.693-1.4-6.141zm-29.578 9.973l6.021-4.401 1.312 5.756-7.333-1.355zm-54.912 9.404l7.535 1.395-6.187 4.521-1.348-5.916zm-23.681 46.881l9.14-6.681 1.993 8.741-11.133-2.06zm-8.44 15.588l13.371 2.473-10.978 8.023-2.393-10.496zm-25.444 49.692l14.627-10.693 3.19 13.993-17.817-3.3zm-7.119 12.413l20.331 3.76-16.693 12.203-3.638-15.963zm-26.473 52.802l19.717-14.413 4.299 18.858-24.016-4.445zm-5.509 9.782l25.814 4.775-21.194 15.493-4.62-20.268zm-28.33 55.49l25.142-18.38 5.481 24.046-30.623-5.666zm-4.264 6.59l32.856 6.078-26.976 19.718-5.88-25.796zm-28.688 58.478l29.369-21.468 6.402 28.086-35.771-6.618zm-2.319 4.907l35.851 6.635-29.434 21.516-6.417-28.151zm-26.781 59.281l28.384-20.744 6.187 27.142-34.571-6.398zm45.03 15.005l31.732 5.872-26.053 19.042-5.679-24.914zm13.225 29.275l23.674-17.303 5.16 22.637-28.834-5.334zm45.933 19.41l20.567 3.806-16.886 12.341-3.681-16.147zm16.104 24.008l13.849-10.125 3.019 13.244-16.868-3.119zm42.993 24.62l9.567 1.769-7.854 5.742-1.713-7.511zm18.549 18.906l4.691-3.427 1.022 4.486-5.713-1.059zm39.877 29.174l.267.047-.219.161-.048-.208zm556.786-548.898l.62-.451.13.593-.75-.142zm-18.3-15.543l1.28.237-1.05.774-.23-1.011zm-37.76-29.235l2.36-1.726.52 2.261-2.88-.535zm-17.92-16.58l3.58.664-2.94 2.15-.64-2.814zM966.31 78.08l4.898.91-4.021 2.937-.877-3.847zm-29.581 8.769l4.471-3.27.975 4.278-5.446-1.008zm-55.6 10.037l6.378 1.183-5.236 3.827-1.142-5.01zm-29.861 9.444l5.634-4.117 1.227 5.384-6.861-1.267zm-55.166 9.491l7.464 1.382-6.128 4.476-1.336-5.858zm-29.839 9.885l6.186-4.521 1.348 5.914-7.534-1.393zm-54.747 9.411l7.431 1.375-6.101 4.459-1.33-5.834zm-29.646 9.827l5.904-4.317 1.287 5.646-7.191-1.329zm-54.667 9.692l6.703 1.241-5.503 4.024-1.2-5.265zm-29.346 9.458l5.11-3.736 1.114 4.89-6.224-1.154zm-54.889 10.127l5.772 1.07-4.739 3.461-1.033-4.531zm-29.496 9.109l4.823-3.524 1.051 4.611-5.874-1.087zm-39.359 28.158l6.466-4.727 1.41 6.184-7.876-1.457zm-8.842 17.332l9.366 1.733-7.69 5.622-1.676-7.355zm-24.277 47.772l10.916-7.98 2.381 10.443-13.297-2.463zm-7.854 14.69l15.224 2.817-12.498 9.138-2.726-11.955zm-25.815 50.542l16.113-11.778 3.513 15.414-19.626-3.636zm-6.446 11.812l21.413 3.964-17.581 12.849-3.832-16.813zm-26.643 53.289l20.525-15.003 4.474 19.628-24.999-4.625zm-5.566 9.111l27.475 5.083-22.558 16.485-4.917-21.568zm-28.628 56.242l26.427-19.316 5.76 25.272-32.187-5.956zm-3.758 6.009l33.981 6.288-27.899 20.391-6.082-26.679zm-27.63 58.702l28.538-20.862 6.222 27.295-34.76-6.433zm-2.429 5.461l34.572 6.397-28.385 20.749-6.187-27.146zm9.197 37.202l32.329 5.984-26.543 19.402-5.786-25.386zm12.283 29.738l25.263-18.467 5.508 24.16-30.771-5.693zm45.442 17.767l24.811 4.592-20.371 14.887-4.44-19.479zm15.372 25.93l17.092-12.497 3.726 16.348-20.818-3.851zm43.706 22.684l13.855 2.565-11.375 8.313-2.48-10.878zm17.533 20.912l8.341-6.1 1.819 7.982-10.16-1.882zm41.276 27.482l3.581.663-2.94 2.149-.641-2.812zm18.885 16.36l1.057-.771.23 1.009-1.287-.238zm576.891-591.959l1.24-.904.27 1.184-1.51-.28zm-18.18-15.918l2.12.391-1.74 1.275-.38-1.666zm-37.71-28.899l2.74-2.01.6 2.63-3.34-.62zm-17.73-16.719l3.82.705-3.13 2.29-.69-2.996zm-8.13-36.328l3.35.622-2.75 2.005-.6-2.627zm-29.341 8.074l3.323-2.432.725 3.181-4.048-.75zM919.92 69.538l4.728.88-3.88 2.837-.848-3.717zm-29.359 8.65l4.083-2.984.889 3.9-4.972-.916zM835.05 88.603l5.417 1.004-4.447 3.251-.97-4.255zm-29.492 8.961l4.625-3.38 1.008 4.42-5.633-1.04zm-55.192 10.255l5.63 1.043-4.622 3.378-1.008-4.421zm-29.39 9.026l4.601-3.368 1.004 4.403-5.605-1.035zm-55.105 10.344l5.364.994-4.405 3.216-.959-4.21zm-29.288 8.893l4.321-3.163.943 4.135-5.264-.972zm-55.043 10.614l4.677.867-3.84 2.805-.837-3.672zm-29.057 8.557l3.647-2.666.795 3.486-4.442-.82zm-55.646 10.641l4.942.916-4.058 2.965-.884-3.881zm-29.592 8.789l4.509-3.296.983 4.312-5.492-1.016zm-9.336 18.448l6.936 1.284-5.695 4.159-1.241-5.443zm-23.037 46.487l7.951-5.815 1.734 7.608-9.685-1.793zm-8.491 16.467l11.265 2.086-9.249 6.762-2.016-8.848zm-24.369 48.58l12.054-8.809 2.628 11.528-14.682-2.719zm-7.493 14.105l16.442 3.04-13.499 9.869-2.943-12.909zm-25.805 51.043l16.744-12.239 3.65 16.012-20.394-3.773zm-6.19 11.527l21.956 4.064-18.026 13.178-3.93-17.242zm-27.311 53.668l21.714-15.873 4.733 20.763-26.447-4.89zm-5.254 8.438l28.923 5.352-23.747 17.356-5.176-22.708zm-28.47 56.806l26.982-19.723 5.882 25.802-32.864-6.079zm-3.257 5.993l33.748 6.242-27.71 20.249-6.038-26.491zm-26.725 58.396l27.19-19.873 5.927 26.004-33.117-6.131zm-2.34 6.584l31.811 5.884-26.118 19.094-5.693-24.978zm12.128 29.559l25.2-18.421 5.494 24.101-30.694-5.68zm44.64 17.156l26.733 4.945-21.948 16.044-4.785-20.989zm14.326 26.961l19.528-14.274 4.256 18.673-23.784-4.399zm44.293 21.276l16.944 3.136-13.912 10.165-3.032-13.301zm16.594 22.401l11.256-8.228 2.454 10.763-13.71-2.535zm42.184 25.969l6.747 1.247-5.54 4.049-1.207-5.296zm18.465 17.762l3.305-2.414.719 3.157-4.024-.743zm38.954 29.49l.011-.002-.01.007-.001-.005zm577.379-649.627l1.73-1.259.37 1.647-2.1-.388zm-17.99-16.149l2.58.479-2.12 1.546-.46-2.025zm-37.53-28.75l2.74-2.01.6 2.63-3.34-.62zm-7.9-36.573l2.18-1.59.47 2.08-2.65-.49zm-56.106 11.408l3.347.619-2.749 2.008-.598-2.627zm-29.041 8.002l2.919-2.132.635 2.787-3.554-.656zm-55.639 11.217l3.552.656-2.917 2.13-.635-2.786zm-29.042 8.086l3.03-2.213.66 2.896-3.69-.683zm-55.638 11.13l3.761.695-3.087 2.26-.674-2.956zm-28.992 8.161l3.068-2.242.669 2.935-3.737-.693zm-55.599 11.131l3.737.691-3.068 2.244-.669-2.935zm-28.86 8.121l2.876-2.099.626 2.748-3.502-.649zm-55.648 11.242l3.5.645-2.874 2.102-.626-2.747zm-28.808 8.01l2.68-1.959.584 2.563-3.264-.604zm-55.7 11.349l3.268.603-2.684 1.96-.584-2.563zm-29.102 7.981l2.956-2.156.643 2.822-3.599-.666zm-56.13 10.783l4.875.901-4.003 2.927-.872-3.828zm-22.382 45.487l5.967-4.365 1.302 5.713-7.269-1.348zm-8.952 17.63l8.707 1.612-7.149 5.226-1.558-6.838zm-23.196 47.254l9.108-6.657 1.985 8.71-11.093-2.053zm-8.096 15.895l12.436 2.301-10.21 7.465-2.226-9.766zm-24.325 49.052l12.614-9.218 2.75 12.064-15.364-2.846zm-7.389 13.753l17.235 3.188-14.15 10.344-3.085-13.532zm-25.532 51.309l16.796-12.278 3.662 16.066-20.458-3.788zm-6.366 11.343l22.502 4.165-18.474 13.506-4.028-17.671zm-27.787 54.001l22.648-16.553 4.936 21.657-27.584-5.104zm-4.943 7.971l29.883 5.529-24.534 17.935-5.349-23.464zm-27.852 57.061l26.662-19.489 5.812 25.498-32.474-6.009zm-3.012 6.443l32.521 6.015-26.701 19.518-5.82-25.533zm-25.44 57.598l24.799-18.127 5.407 23.719-30.206-5.592zm44.271 17.164l26.917 4.983-22.099 16.154-4.818-21.137zm13.977 27.117l20.097-14.69 4.382 19.222-24.479-4.532zm43.99 20.585l18.788 3.479-15.425 11.274-3.363-14.753zm15.815 23.342l13.29-9.716 2.896 12.708-16.186-2.992zm42.359 24.528l10.134 1.876-8.319 6.084-1.815-7.96zm18.188 19.225l5.482-4.007 1.195 5.244-6.677-1.237zm39.884 28.565l1.735.32-1.424 1.041-.311-1.361zm18.934 15.584l.007-.002v.004l-.007-.002zM1069.68 75.73l1.91-1.397.42 1.822-2.33-.426zm-17.88-16.208l2.65.493-2.18 1.588-.47-2.081zm-54.596-44.92l2.191.405-1.799 1.312-.392-1.717zm-28.808 7.471l1.984-1.452.433 1.9-2.417-.448zm-55.881 11.738l2.418.449-1.985 1.45-.433-1.899zm-28.704 7.543l1.967-1.437.428 1.879-2.395-.442zm-55.8 11.824l2.164.402-1.777 1.299-.387-1.701zm-28.662 7.429l1.777-1.3.388 1.7-2.165-.4zm-55.925 11.867l2.136.394-1.754 1.28-.382-1.674zm-28.657 7.413l1.754-1.28.382 1.674-2.136-.394zm-56.022 11.805l2.341.432-1.923 1.403-.418-1.835zm-28.719 7.512l1.946-1.42.423 1.856-2.369-.436zm-55.891 11.764l2.363.437-1.94 1.419-.423-1.856zm-28.748 7.529l1.999-1.46.435 1.91-2.434-.45zm-56.243 11.434l3.359.621-2.758 2.016-.601-2.637zm-29.348 8.077l3.338-2.442.728 3.195-4.066-.753zm-39.051 28.086l4.564-3.336.996 4.367-5.56-1.031zm-9.14 18.565l6.551 1.213-5.379 3.928-1.172-5.141zM388.9 230.913l7.293-5.333 1.59 6.973-8.883-1.64zm-8.434 17.02l9.887 1.833-8.116 5.935-1.771-7.768zm-23.073 47.716l9.564-6.992 2.085 9.149-11.649-2.157zm-7.81 15.778l12.569 2.324-10.32 7.543-2.249-9.867zm-24.402 49.121l12.791-9.345 2.787 12.227-15.578-2.882zm-7.242 13.74l17.192 3.18-14.115 10.318-3.077-13.498zm-25.679 51.324l16.977-12.405 3.699 16.229-20.676-3.824zm-6.581 11.031l23.379 4.327-19.195 14.027-4.184-18.354zm-27.978 54.404l23.371-17.084 5.095 22.352-28.466-5.268zm-4.59 7.697l30.353 5.617-24.92 18.216-5.433-23.833zm-26.944 57.048l25.679-18.773 5.6 24.565-31.279-5.792zm-2.943 7.26l30.499 5.643-25.04 18.304-5.459-23.947zm9.74 37.648l26.873 4.976-22.062 16.127-4.811-21.103zm13.865 27.126l20.225-14.783 4.409 19.34-24.634-4.557zm43.725 20.268l19.701 3.647-16.176 11.819-3.525-15.466zm15.825 23.717l13.765-10.064 3.001 13.163-16.766-3.099zm41.988 23.857l11.967 2.213-9.825 7.181-2.142-9.394zm17.345 20.172l7.597-5.552 1.656 7.264-9.253-1.712zm40.642 27.542l3.79.702-3.112 2.273-.678-2.975zm18.788 16.468l1.296-.946.282 1.239-1.578-.293zM1061.45 39.234l1.8-1.315.39 1.72-2.19-.405zM1043.7 23.23l2.09.385-1.72 1.259-.37-1.645zM950.961 6.183l1.641.305-1.347.985-.294-1.29zm-28.472 7.169l1.241-.905.269 1.182-1.51-.277zm-55.902 12.301l1.064.2-.873.637-.191-.837zm-28.413 6.919l.853-.623.186.812-1.039-.19zM782.01 44.955l1.011.189-.829.608-.182-.797zm-28.418 6.897l.833-.61.182.798-1.015-.188zm-56.27 12.318l1.235.227-1.015.74-.22-.967zm-28.6 7.028l1.195-.877.262 1.147-1.457-.27zm-56.206 12.088l1.751.325-1.438 1.05-.313-1.375zm-28.669 7.259l1.568-1.148.343 1.502-1.911-.354zm-56.169 11.827l2.365.438-1.942 1.419-.423-1.857zm-29.03 7.594l2.376-1.738.519 2.274-2.895-.536zm-56.267 11.117l4.139.766-3.398 2.483-.741-3.249zm-29.516 8.438l3.979-2.908.867 3.803-4.846-.895zm-9.157 19.004l5.488 1.017-4.505 3.295-.983-4.312zm-22.131 45.685l5.953-4.35 1.297 5.69-7.25-1.34zm-8.743 17.813l8.148 1.508-6.689 4.892-1.459-6.4zm-22.581 46.884l7.979-5.831 1.739 7.628-9.718-1.797zm-7.946 16.9l9.922 1.834-8.146 5.955-1.776-7.789zm-22.686 47.639l9.066-6.626 1.976 8.669-11.042-2.043zm-8.038 15.978l12.206 2.257-10.022 7.327-2.184-9.584zm-24.381 48.969l12.57-9.187 2.74 12.02-15.31-2.833zm-7.233 13.918l16.751 3.098-13.753 10.052-2.998-13.15zm-26.578 51.349l17.954-13.129 3.915 17.175-21.869-4.046zm-6.369 10.438l24.69 4.571-20.27 14.816-4.42-19.387zm-27.98 54.948l24.07-17.596 5.247 23.018-29.317-5.422zm-4.076 7.581l30.354 5.614-24.923 18.214-5.431-23.828zm-25.949 56.818l24.338-17.788 5.305 23.274-29.643-5.486zm-2.958 8.294l28.013 5.179-23 16.814-5.013-21.993zm13.735 27.624l21.006-15.355 4.58 20.088-25.586-4.733zm44.262 20.1l19.804 3.665-16.259 11.886-3.545-15.551zm15.602 23.811l14.121-10.321 3.078 13.503-17.199-3.182zm42.058 23.637l12.463 2.306-10.233 7.476-2.23-9.782zm16.943 20.47l8.399-6.142 1.832 8.037-10.231-1.895zm40.64 26.918l5.304.979-4.355 3.186-.949-4.165zm18.313 17.2l2.744-2.008.6 2.63-3.344-.622zm38.543 29.584l.006-.001-.005.005-.001-.004zM1053.6 2.65l1.17-.849.25 1.11-1.42-.261zM876.713 4.597l.32-.23.069.304-.389-.074zm-56.237 12.747l.183.03-.15.114-.033-.144zm-28.238 6.509l.148-.106.033.145-.181-.039zM735.772 36.54l.451.082-.37.273-.081-.354zm-28.414 6.662l.526-.384.115.506-.641-.122zm-56.441 12.41l1.1.205-.902.665-.198-.87zM622.263 62.6l1.198-.876.261 1.148-1.459-.273zm-56.266 12.038l1.91.352-1.568 1.148-.342-1.5zm-28.787 7.349l1.809-1.32.395 1.73-2.204-.41zM480.918 93.53l3.13.575-2.57 1.88-.56-2.455zm-29.297 7.967l3.151-2.299.686 3.009-3.837-.71zm-56.033 10.713l4.988.923-4.095 2.996-.893-3.919zm-21.591 45.355l4.96-3.626 1.082 4.745-6.042-1.119zm-8.935 18.429l6.762 1.252-5.551 4.06-1.211-5.312zm-22.322 46.254l6.892-5.038 1.502 6.59-8.394-1.552zm-8.335 17.417l8.88 1.645-7.291 5.328-1.589-6.973zM312.71 286.65l7.164-5.235 1.561 6.848-8.725-1.613zm-8.143 17.367l8.901 1.645-7.308 5.342-1.593-6.987zm-22.658 47.21l8.481-6.199 1.849 8.112-10.33-1.913zm-8.27 16.241l11.699 2.163-9.605 7.023-2.094-9.186zm-24.315 48.745l12.209-8.923 2.661 11.674-14.87-2.751zm-7.676 13.829l17.207 3.184-14.128 10.325-3.079-13.509zm-27.439 51.734l19.362-14.155 4.222 18.521-23.584-4.366zm-5.968 9.681l26.308 4.868-21.6 15.785-4.708-20.653zm-27.559 55.518l24.365-17.811 5.312 23.304-29.677-5.493zm-3.62 7.725l29.752 5.503-24.427 17.856-5.325-23.359zm-24.996 56.353l22.726-16.609 4.953 21.73-27.679-5.121zm44.862 19.264l21.516 3.979-17.666 12.911-3.85-16.89zm15.75 24.478l14.829-10.837 3.233 14.18-18.062-3.343zm42.647 23.576l12.29 2.276-10.091 7.373-2.199-9.649zm16.874 20.416l8.405-6.143 1.831 8.035-10.236-1.892zm40.267 26.602l6.266 1.16-5.145 3.762-1.121-4.922zm18.216 17.621l3.387-2.471.738 3.235-4.125-.764zm38.598 29.134l1.063.197-.873.637-.19-.834zm320.043-744.19l.427.076-.35.26-.077-.336zm-28.513 6.673l.65-.474.142.623-.792-.149zm-56.492 12.276l1.458.27-1.197.877-.261-1.147zm-28.691 7.142l1.439-1.048.313 1.376-1.752-.328zm-56.286 11.838l2.411.442-1.98 1.449-.431-1.891zm-29.009 7.605l2.378-1.735.518 2.273-2.896-.538zm-56.176 11.196l3.903.72-3.204 2.345-.699-3.065zm-29.32 8.293l3.592-2.623.782 3.432-4.374-.81zm-38.864 28.043l4.567-3.336.996 4.368-5.563-1.032zm-8.938 18.731l6.04 1.12-4.958 3.626-1.082-4.746zm-21.912 45.861l5.952-4.348 1.296 5.689-7.248-1.341zm-8.622 17.917l7.833 1.451-6.431 4.699-1.402-6.15zm-21.624 46.536l6.514-4.76 1.419 6.227-7.933-1.467zm-8.133 17.879l7.652 1.416-6.283 4.59-1.369-6.006zm-21.261 46.377l5.93-4.334 1.292 5.671-7.222-1.337zm-8.477 18.057l7.422 1.37-6.094 4.455-1.328-5.825zm-22.843 46.638l7.945-5.807 1.732 7.601-9.677-1.794zm-8.523 16.449l11.335 2.099-9.306 6.801-2.029-8.9zm-24.931 48.736l12.851-9.394 2.802 12.29-15.653-2.896zm-7.969 13.092l19.157 3.546-15.728 11.498-3.429-15.044zm-27.9 52.643l21.027-15.368 4.582 20.105-25.609-4.737zm-5.336 8.909l27.826 5.15-22.846 16.696-4.98-21.846zm-26.915 55.998l24.3-17.763 5.298 23.24-29.598-5.477zm-3.505 7.873l29.334 5.425-24.084 17.606-5.25-23.031zm10.24 38.057l24.434 4.525-20.061 14.662-4.373-19.187zm15.312 25.789l16.974-12.408 3.7 16.232-20.674-3.824zm43.645 22.728l13.785 2.553-11.318 8.27-2.467-10.823zm17.161 20.97l8.809-6.441 1.92 8.424-10.729-1.983zm40.471 26.457l6.508 1.204-5.344 3.903-1.164-5.107zm18.026 17.764l3.773-2.757.822 3.606-4.595-.849zm38.711 28.924l1.511.278-1.241.907-.27-1.185zm18.602 15.567l.335-.245.074.323-.409-.078zM699.338 6.66l.128-.092.028.123-.156-.03zm-56.615 12.579l.789.146-.647.477-.142-.623zm-28.545 6.833l.884-.645.193.846-1.077-.2zm-56.431 12.144l1.75.32-1.437 1.05-.313-1.37zm-28.753 7.274l1.675-1.227.366 1.606-2.041-.38zm-56.297 11.64l2.898.532-2.38 1.741-.518-2.273zm-29.146 7.837l2.82-2.06.614 2.694-3.434-.634zm-56.009 10.991l4.304.795-3.534 2.584-.77-3.38zm-29.305 8.456l3.785-2.765.825 3.62-4.61-.855zm-9.238 19.096l5.325.981-4.373 3.198-.952-4.179zm-21.752 45.527l5.354-3.917 1.168 5.122-6.522-1.205zm-8.738 18.284l7.006 1.296-5.753 4.203-1.253-5.499zm-21.59 46.187l6.033-4.411 1.315 5.771-7.348-1.36zm-8.288 18.126l7.137 1.322-5.86 4.28-1.277-5.602zm-20.797 46.06l5.029-3.675 1.096 4.808-6.125-1.133zm-8.429 18.794l5.605 1.035-4.603 3.362-1.002-4.397zm-21.136 45.502l4.671-3.413 1.018 4.468-5.689-1.055zm-9.019 18.584l6.438 1.189-5.286 3.866-1.152-5.055zm-23.143 46.305l7.829-5.721 1.706 7.484-9.535-1.763zm-8.72 16.378l11.612 2.148-9.533 6.969-2.079-9.117zm-26.396 49.186l14.98-10.951 3.266 14.327-18.246-3.376zm-7.515 11.81l22.003 4.072-18.066 13.202-3.937-17.274zm-27.985 53.838l22.653-16.56 4.939 21.666-27.592-5.106zm-4.737 8.137l29.367 5.434-24.111 17.624-5.256-23.058zm-26.574 56.555l24.66-18.025 5.376 23.583-30.036-5.558zm-2.944 8.056l28.585 5.284-23.47 17.158-5.115-22.442zm14.39 27.71l20.423-14.93 4.451 19.529-24.874-4.599zm45.169 21.303l16.398 3.033-13.463 9.839-2.935-12.872zm16.922 22.1l10.523-7.693 2.294 10.063-12.817-2.37zm41.453 25.934l7.231 1.341-5.936 4.338-1.295-5.679zm18.021 18.066l4.164-3.043.908 3.981-5.072-.938zm38.974 28.833l1.579.293-1.296.948-.283-1.241zm18.498 15.623l.511-.377.113.493-.624-.116zM596.152 10.55l1.081.2-.888.65-.193-.85zm-28.702 6.989l1.252-.917.273 1.2-1.525-.283zM511.108 29.47l2.208.409-1.812 1.324-.396-1.734zm-28.936 7.508l2.17-1.587.473 2.076-2.643-.489zM426.057 48.38l3.361.623-2.758 2.02-.603-2.644zm-29.188 8.043l3.123-2.282.681 2.985-3.804-.703zm-55.866 10.871l4.512.835-3.704 2.707-.808-3.542zm-21.617 45.161l4.743-3.464 1.033 4.534-5.776-1.07zm-8.904 18.62l6.281 1.163-5.156 3.773-1.125-4.936zm-21.527 45.876l5.555-4.061 1.211 5.312-6.766-1.251zm-8.437 18.376l6.623 1.222-5.438 3.975-1.185-5.197zm-20.88 45.864l4.867-3.557 1.061 4.655-5.928-1.098zm-8.442 18.904l5.338.99-4.383 3.199-.955-4.189zm-20.214 45.185l3.281-2.397.715 3.134-3.996-.737zm-9.005 19.673l3.789.701-3.111 2.275-.678-2.976zm-21.266 44.783l3.88-2.832.845 3.708-4.725-.876zm-9.464 18.832l6.085 1.123-4.996 3.655-1.089-4.778zm-23.705 46.286l8.399-6.137 1.83 8.03-10.229-1.893zm-8.95 15.745l13.274 2.456-10.898 7.968-2.376-10.424zm-27.713 50.172l17.644-12.897 3.846 16.873-21.49-3.976zm-6.71 10.405l24.969 4.618-20.501 14.983-4.468-19.601zm-28.324 55.137l24.685-18.045 5.382 23.609-30.067-5.564zm-3.843 7.292l30.919 5.722-25.385 18.556-5.534-24.278zm-25.669 56.991l24.256-17.73 5.288 23.197-29.544-5.467zm46.185 19.16l21.03 3.892-17.265 12.622-3.765-16.514zm16.57 24.094l13.461-9.839 2.935 12.872-16.396-3.033zm43.01 24.936l8.793 1.629-7.22 5.275-1.573-6.904zm17.911 18.736l5.145-3.762 1.121 4.919-6.266-1.157zm39.368 28.397l2.418.448-1.985 1.451-.433-1.899zm18.696 15.922l.691-.505.152.663-.843-.158zM549.52 1.81l1.526.283-1.252.916-.274-1.2zm-28.802 7.197l1.626-1.188.354 1.552-1.98-.364zm-56.245 11.719l2.667.494-2.19 1.599-.477-2.093zm-29.035 7.72l2.544-1.864.556 2.44-3.1-.576zm-56.014 11.199l3.803.703-3.123 2.282-.68-2.986zm-29.172 8.219l3.34-2.439.727 3.188-4.067-.749zm-38.556 27.974l3.897-2.85.851 3.731-4.748-.881zm-9.143 19.082l5.299.98-4.351 3.18-.948-4.16zm-21.601 45.481l5.135-3.754 1.12 4.912-6.255-1.158zm-8.615 18.558l6.282 1.163-5.158 3.77-1.124-4.933zm-21.001 45.752l4.85-3.539 1.055 4.629-5.905-1.09zm-8.497 18.874l5.445 1.01-4.47 3.268-.975-4.278zm-20.221 45.232l3.349-2.45.73 3.202-4.079-.752zm-8.752 19.828l3.267.607-2.682 1.962-.585-2.569zm-19.933 44.265l1.799-1.313.393 1.72-2.192-.407zm-9.6 20.335l2.518.465-2.067 1.512-.451-1.977zm-21.781 44.374l3.902-2.848.85 3.729-4.752-.881zm-9.745 18.587l6.84 1.263-5.617 4.103-1.223-5.366zm-24.799 46.847l10.282-7.515 2.241 9.835-12.523-2.32zm-9.014 14.229l16.977 3.144-13.938 10.186-3.039-13.33zm-28.588 51.9l20.796-15.203 4.534 19.889-25.33-4.686zm-5.787 8.717l28.545 5.282-23.436 17.129-5.11-22.411zM56.6 594.444l26.178-19.133 5.707 25.034-31.885-5.901zm-3.149 6.705l31.956 5.914-26.236 19.178-5.72-25.092zm10.353 38.154l26.775 4.955-21.983 16.067-4.792-21.022zm15.532 26.703l17.917-13.097 3.906 17.135-21.823-4.038zm44.92 23.046l12.317 2.28-10.112 7.389-2.205-9.669zm17.911 20.19l7.015-5.131 1.53 6.711-8.545-1.58zm40.351 27.749l3.441.639-2.825 2.065-.616-2.704zm18.556 16.379l1.424-1.039.31 1.359-1.734-.32zM473.982.473l1.999-1.462.436 1.916-2.435-.454zm-56.15 11.506l3.132.58-2.572 1.878-.56-2.458zm-29.011 7.907l2.761-2.02.602 2.644-3.363-.624zM332.93 31.014l3.903.723-3.204 2.344-.699-3.067zm-29.181 8.264l3.397-2.485.741 3.25-4.138-.765zm-9.21 19.412l4.534.84-3.722 2.722-.812-3.563zm-21.336 45.107l4.37-3.194.953 4.181-5.323-.987zm-8.991 18.84l5.802 1.072-4.763 3.483-1.039-4.555zm-21.126 45.585l4.762-3.483 1.038 4.555-5.8-1.072zm-8.611 18.851l5.566 1.028-4.571 3.337-.995-4.365zm-20.383 45.315l3.636-2.657.792 3.475-4.428-.818zm-8.729 19.628l3.748.693-3.078 2.25-.67-2.943zm-19.652 44.398l1.677-1.227.366 1.606-2.043-.379zm-9.207 20.756l1.284.235-1.054.77-.23-1.005zm-20.192 43.502l1.098-.802.239 1.051-1.337-.249zm-9.962 20.586l2.109.389-1.732 1.267-.377-1.656zm-22.619 44.398l4.822-3.524 1.051 4.609-5.873-1.085zm-9.72 17.889l8.504 1.574-6.982 5.106-1.522-6.68zm-26.758 47.986l13.814-10.1 3.011 13.209-16.825-3.109zm-8.213 12.143l21.587 3.993-17.724 12.954-3.863-16.947zm-29.103 53.919l23.943-17.502 5.219 22.897-29.162-5.395zm-4.738 7.13L77 570.609l-26.109 19.087-5.692-24.973zM75.73 678.752l17.581 3.253-14.434 10.55-3.146-13.803zm17.39 22.485l10.52-7.693 2.294 10.063-12.813-2.37zm42.103 26.471l5.571 1.032-4.573 3.344-.998-4.376zm18.558 17.257l2.558-1.869.557 2.442-3.115-.573zm38.401 29.614h.007l-.006.005-.001-.005zM371.256 3.287l3.435.635-2.82 2.06-.615-2.695zm-29.075 8.045l3.01-2.199.656 2.877-3.666-.678zm-55.803 11.01l4.139.767-3.398 2.483-.741-3.25zm-21.055 44.882l3.784-2.765.824 3.615-4.608-.85zm-9.107 19.2l4.989.923-4.096 2.993-.893-3.916zm-21.301 45.286l4.567-3.337.995 4.366-5.562-1.029zm-8.755 18.885l5.566 1.027-4.57 3.342-.996-4.369zm-20.656 45.378l4.002-2.925.872 3.825-4.874-.9zm-8.722 19.348l4.426.816-3.633 2.659-.793-3.475zm-19.871 44.728l2.332-1.704.507 2.228-2.839-.524zm-8.981 20.428l1.944.362-1.595 1.168-.349-1.53zm-19.336 43.582l.288-.208.062.272-.35-.064zm-9.829 21.325l.251.044-.206.151-.045-.195zm-20.573 43.162l1.066-.778.232 1.016-1.298-.238zm-10.317 20.315l2.958.548-2.428 1.778-.53-2.326zm-23.651 44.986l6.664-4.87 1.453 6.372-8.117-1.502zm-9.672 16.497l11.85 2.193-9.73 7.111-2.12-9.304zm-28.55 49.775l18.02-13.174 3.927 17.232-21.947-4.058zm-7.037 9.843l26.503 4.904-21.759 15.907-4.744-20.811zm48.439 188.032l9.036 1.672-7.419 5.422-1.617-7.094zm18.298 18.746l4.746-3.475 1.035 4.542-5.781-1.067zm39.57 28.871l1.156.215-.949.695-.207-.91zM295.479 2.793l3.339-2.441.728 3.192-4.067-.75zm-38.284 27.912l3.528-2.582.77 3.378-4.298-.796zm-9.116 19.39l4.54.838-3.728 2.725-.812-3.563zM226.933 95.16l4.119-3.011.898 3.938-5.017-.927zm-8.953 19.07l5.227.964-4.292 3.139-.935-4.103zm-21.063 45.326l4.372-3.19.952 4.178-5.324-.988zm-8.624 19.143l4.873.902-4.001 2.923-.872-3.825zm-20.231 44.994l3.055-2.23.665 2.919-3.72-.689zm-8.798 20.018l2.841.528-2.333 1.702-.508-2.23zm-19.424 43.974l.881-.646.192.846-1.073-.2zm-9.442 21.18l.384.07-.316.229-.068-.299zm-29.682 64.474l.015.002-.012.01-.003-.012zm-21.453 43.266l2.127-1.554.465 2.038-2.592-.484zM69.02 436.156l4.772.884-3.917 2.864-.855-3.748zm-25.247 46.098l9.787-7.153 2.134 9.359-11.92-2.206zm-9.434 14.267l17.12 3.169-14.056 10.273-3.064-13.442zm63.615 259.786l3.348.621-2.749 2.008-.6-2.629zm18.794 16.285l1.055-.769.229 1.006-1.284-.237zM239.763 13.616l4.541.843-3.728 2.723-.813-3.566zm-21 45.034l3.92-2.865.855 3.748-4.775-.882zm-8.95 19.223l4.851.898-3.983 2.91-.868-3.808zm-21.065 45.176l4.174-3.052.91 3.992-5.084-.94zm-8.91 19.061l5.225.964-4.29 3.138-.935-4.102zm-20.586 45.221l3.724-2.726.813 3.568-4.537-.842zm-8.716 19.567l3.887.719-3.191 2.331-.696-3.05zm-19.759 44.482l1.895-1.388.414 1.813-2.309-.425zm-9.102 20.669l1.429.265-1.173.857-.256-1.122zM62.403 401.083l.445.079-.366.269-.079-.348zM39.9 444.766l3.779-2.761.823 3.611-4.601-.85zm-10.202 18.3l7.77 1.439-6.38 4.665-1.39-6.104zm180.75-440.89l3.92-2.87.855 3.75-4.775-.88zm-8.921 19.247l4.775.883-3.921 2.864-.854-3.747zm-21.052 45.142l4.117-3.01.898 3.937-5.015-.927zm-8.895 19.112l5.085.941-4.176 3.05-.909-3.991zm-20.975 45.251l4.176-3.05.91 3.994-5.086-.944zm-8.731 19.207l4.775.88-3.92 2.87-.855-3.75zm-20.125 44.93l2.862-2.09.623 2.734-3.485-.644zm-8.909 20.081l2.747.509-2.256 1.648-.491-2.157zM93.291 279.11l1.007-.739.22.967-1.227-.228zm-9.408 21.11l.533.099-.437.319-.096-.418zM34.2 407.692l.243-.174.052.229-.295-.055zm-10.6 20.724l2.128.392-1.747 1.279-.381-1.671zM193.184 4.923l4.85.898-3.984 2.905-.866-3.803zM172.16 50.089l4.118-3.01.897 3.937-5.015-.927zm-8.868 19.136l5.012.928-4.115 3.008-.897-3.936zm-21.089 45.249l4.292-3.138.936 4.104-5.228-.966zm-8.769 19.084l5.087.94-4.177 3.052-.91-3.992zm-20.641 45.174l3.726-2.722.813 3.566-4.539-.844zm-8.74 19.547l3.954.734-3.246 2.373-.708-3.107zm-19.954 44.554l2.197-1.607.479 2.102-2.676-.495zm-9.112 20.431l2.011.375-1.651 1.203-.36-1.578zm-19.418 43.631l.438-.321.096.418-.534-.097zM163.805 13.623l4.173-3.054.911 3.994-5.084-.94zm-8.912 19.057l5.227.968-4.292 3.134-.935-4.103zM133.876 78l4.31-3.151.94 4.121-5.25-.97zm-8.821 19.03l5.252.97-4.313 3.15-.939-4.12zm-20.911 45.304l4.178-3.052.91 3.992-5.088-.94zm-8.768 19.173l4.874.9-4.002 2.927-.873-3.827zM75.05 206.525l3.187-2.331.695 3.05-3.883-.719zm-8.93 19.81l3.417.632-2.806 2.049-.61-2.681zm-19.779 44.292l1.672-1.226.365 1.603-2.037-.377zm-9.225 20.742l1.323.244-1.087.792-.236-1.036zM125.414 41.56l4.508-3.296.983 4.312-5.491-1.016zm-8.768 18.915l5.492 1.016-4.509 3.296-.983-4.312zm-21.06 45.44l4.507-3.295.983 4.31-5.49-1.015zm-8.7 18.97l5.321.985-4.368 3.196-.953-4.181zm-20.839 45.318l4.118-3.006.897 3.935-5.015-.929zm-8.696 19.283l4.568.843-3.75 2.742-.818-3.585zm-20.259 44.877l2.938-2.147.64 2.809-3.578-.662zm-8.923 20.005l2.932.545-2.407 1.762-.525-2.307zm-19.55 44.043l1.103-.809.242 1.058-1.345-.249zm99.686-274.436l5.563 1.031-4.567 3.337-.996-4.368zM87.13 69.472l4.7-3.442 1.026 4.5-5.727-1.058zm-8.721 18.805l5.73 1.06-4.704 3.44-1.026-4.5zm-20.963 45.517l4.505-3.295.983 4.312-5.488-1.017zm-8.716 18.963l5.352.989-4.394 3.213-.958-4.202zm-20.7 45.297l3.949-2.881.86 3.773-4.809-.892zm-8.708 19.404l4.285.794-3.518 2.57-.767-3.364zM-.8 262.185l2.597-1.901.567 2.489-3.163-.588zM78.815 32.997l4.7-3.441 1.026 4.5-5.726-1.059zm-8.814 18.728l5.972 1.104-4.903 3.584L70 51.725zm-21.163 45.66l4.902-3.581 1.068 4.686-5.97-1.105zm-8.571 18.773l5.733 1.06-4.708 3.439-1.025-4.499zM19.3 161.674l4.509-3.295.983 4.312-5.492-1.017zm-8.683 18.986l5.276.976-4.33 3.171-.946-4.147zM40.38 60.943l5.095-3.728 1.112 4.876-6.208-1.148zm-8.617 18.584l6.212 1.15-5.1 3.726-1.112-4.876zm-21.067 45.739l4.904-3.583 1.068 4.685-5.972-1.102zM2.03 143.961l5.972 1.104-4.904 3.583-1.068-4.687zM23.449 43.05l6.212 1.152-5.1 3.725-1.112-4.877zM2.106 88.853l5.275-3.857 1.15 5.043-6.425-1.186zm-8.511 18.53l6.28 1.163-5.156 3.77-1.124-4.933zm.178-55.001l5.298-3.876 1.154 5.067-6.452-1.19zm812.996 583.869l.007.001-.006.003-.001-.004zm9.943-21.449l.005-.004.001.004h-.006zm-29.95 64.384l.168-.124.037.161-.205-.037zm28.089-6.651l.602.111-.494.36-.108-.471zm9.813-21.175l.496-.36.107.471-.603-.111zm20.099-43.112l.388.071-.319.232-.069-.303zm9.971-21.298l.167-.123.037.16-.204-.037zm20.006-42.937l.007.003-.006.001-.001-.004zm-97.875 156.531l.203.037-.167.121-.036-.158zm55.848-12.647l.853-.623.186.817-1.039-.194zm20.159-43.341l.908.167-.745.547-.163-.714zm9.805-21.046l.671-.491.147.643-.818-.152zm20.146-43.211l.601.111-.494.36-.107-.471zm9.892-21.192l.385-.284.085.371-.47-.087zm20.093-43.034l.204.034-.168.122-.036-.156zm9.911-21.364l.148-.11.032.144-.18-.034zM794.823 715.722l.513-.376.111.489-.624-.113zm28.171-6.853l1.039.194-.853.622-.186-.816zm37.966-28.022l1.482.273-1.217.89-.265-1.163zm9.627-20.768l1.217-.892.266 1.166-1.483-.274zm20.292-43.519l1.258.234-1.032.757-.226-.991zm9.752-20.886l.927-.679.203.888-1.13-.209zm20.236-43.333l.846.156-.695.505-.151-.661zm9.781-21.066l.671-.493.147.645-.818-.152zm20.194-43.173l.476.088-.391.287-.085-.375zm9.893-21.245l.32-.232.069.303-.389-.071zm20.053-43.016l.176.032-.144.108-.032-.14zm10.007-21.394l.004-.003.001.006-.005-.003zM756.937 743.542l.166-.122.037.16-.203-.038zm28.086-6.648l.599.11-.492.36-.107-.47zm55.737-12.459l1.217-.891.266 1.167-1.483-.276zm28.347-7.249l1.913.351-1.571 1.147-.342-1.498zm9.518-20.567l1.592-1.166.347 1.523-1.939-.357zm20.364-43.748l1.778.327-1.46 1.068-.318-1.395zm9.605-20.643l1.403-1.025.306 1.342-1.709-.317zm20.314-43.642l1.55.288-1.272.932-.278-1.22zm9.65-20.743l1.221-.892.266 1.165-1.487-.273zm20.342-43.475l1.13.209-.928.676-.202-.885zm9.757-20.945l.851-.623.186.817-1.037-.194zm20.19-43.314l.822.153-.675.492-.147-.645zm9.901-21.104l.496-.36.107.473-.603-.113zm20.102-43.112l.38.071-.31.235-.07-.306zm9.97-21.298l.17-.122.03.159-.2-.037zm-121.749 314.56l2.37.44-1.946 1.42-.424-1.86zm9.437-20.36l1.946-1.42.424 1.859-2.37-.439zm20.474-43.929l2.164.398-1.777 1.3-.387-1.698zm9.479-20.454l1.775-1.3.388 1.702-2.163-.402zm20.435-43.828l1.939.358-1.593 1.161-.346-1.519zm9.668-20.591l1.403-1.028.306 1.343-1.709-.315zm20.34-43.62l1.482.273-1.217.891-.265-1.164zm9.756-20.799l1.04-.756.22.99-1.26-.234zm20.25-43.414l1.03.19-.85.625-.18-.815zm9.85-21.005l.67-.49.15.641-.82-.151zm20.2-43.171l.47.09-.39.284-.08-.374zm9.89-21.244l.32-.232.07.303-.39-.071zM924.544 705.336l2.322-1.697.506 2.221-2.828-.524zm20.487-44.211l2.83.524-2.323 1.699-.507-2.223zm9.421-20.164l2.212-1.615.483 2.116-2.695-.501zm20.499-44.116l2.599.48-2.134 1.558-.465-2.038zm9.471-20.272l2.022-1.479.44 1.934-2.462-.455zm20.528-43.945l2.17.4-1.78 1.298-.39-1.698zm9.62-20.483l1.59-1.163.35 1.521-1.94-.358zm20.39-43.727l1.71.317-1.41 1.026-.3-1.343zm9.71-20.694l1.22-.89.26 1.163-1.48-.273zm20.29-43.516l1.26.231-1.03.759-.23-.99zm9.81-20.902l.85-.623.19.814-1.04-.191zm20.28-43.241l.6.111-.49.359-.11-.47zm9.93-21.202l.33-.247.08.324-.41-.077zM953.167 697.454l3.292.607-2.704 1.976-.588-2.583zm9.235-19.932l2.707-1.977.589 2.585-3.296-.608zm20.646-44.382l3.155.584-2.59 1.894-.565-2.478zm9.31-20.005l2.531-1.852.553 2.424-3.084-.572zm20.632-44.254l2.86.529-2.34 1.712-.52-2.241zm9.43-20.155l2.22-1.617.48 2.114-2.7-.497zm20.59-44.053l2.39.445-1.97 1.433-.42-1.878zm9.52-20.37l1.84-1.337.39 1.751-2.23-.414zm20.48-43.837l1.94.357-1.59 1.161-.35-1.518zm9.67-20.593l1.4-1.022.31 1.342-1.71-.32zm20.43-43.545l1.26.231-1.04.76-.22-.991zm9.8-20.902l.86-.623.18.813-1.04-.19zM991.126 669.421l3.761.696-3.089 2.254-.672-2.95zm9.134-19.717l3.09-2.256.67 2.951-3.76-.695zm20.78-44.563l3.53.65-2.89 2.118-.64-2.768zm9.28-19.844l2.78-2.037.61 2.665-3.39-.628zm20.7-44.395l3.15.587-2.59 1.893-.56-2.48zm9.41-20.026l2.39-1.755.53 2.294-2.92-.539zm20.62-44.157l2.63.485-2.16 1.575-.47-2.06zm9.53-20.273l1.96-1.436.43 1.878-2.39-.442zm20.57-43.863l1.94.357-1.59 1.165-.35-1.522zm9.67-20.59l1.4-1.023.31 1.343-1.71-.32zm-112.53 294.253l3.47-2.538.76 3.321-4.23-.783zm20.8-44.857l4.22.781-3.47 2.541-.75-3.322zm9.13-19.522l3.34-2.439.73 3.191-4.07-.752zm20.84-44.713l3.86.712-3.17 2.316-.69-3.028zm9.18-19.686l3.08-2.256.67 2.952-3.75-.696zm20.86-44.489l3.3.609-2.71 1.977-.59-2.586zm9.33-19.949l2.59-1.897.56 2.477-3.15-.58zm20.74-44.214l2.69.499-2.21 1.615-.48-2.114zm9.55-20.251l1.97-1.435.42 1.878-2.39-.443zm-91.51 249.145l4.7.872-3.86 2.825-.84-3.697zm8.94-19.278l3.86-2.825.84 3.697-4.7-.872zm20.96-45.025l4.53.841-3.72 2.722-.81-3.563zm9.01-19.365l3.67-2.682.8 3.509-4.47-.827zm20.99-44.847l4.09.759-3.36 2.454-.73-3.213zm9.2-19.592l3.17-2.316.69 3.028-3.86-.712zm20.85-44.579l3.53.653-2.9 2.115-.63-2.768zm9.41-19.877l2.59-1.894.57 2.478-3.16-.584zm-61.34 184.584l5.02.928-4.12 3.009-.9-3.937zm8.87-19.139l4.12-3.009.9 3.937-5.02-.928zm21.05-45.142l4.78.884-3.92 2.867-.86-3.751zm9.05-19.275l3.75-2.739.82 3.583-4.57-.844zm20.99-44.906l4.24.786-3.48 2.539-.76-3.325zm9.19-19.528l3.28-2.4.71 3.139-3.99-.739zm-52.25 165.394l4.51-3.295.98 4.312-5.49-1.017zm21.06-45.438l5.49 1.015-4.51 3.295-.98-4.31zm8.91-18.951l4.31-3.151.94 4.124-5.25-.973zm21.1-45.253l5.02.928-4.12 3.009-.9-3.937zm9.02-19.168l3.92-2.866.85 3.749-4.77-.883zm-30.9 119.694l5.96 1.104-4.9 3.582-1.06-4.686zm8.66-18.697l4.9-3.585 1.07 4.69-5.97-1.105zm21.29-45.56l5.65 1.047-4.64 3.396-1.01-4.443zm8.83-18.864l4.51-3.296.98 4.312-5.49-1.016zm-.74 55.16l6.21 1.152-5.1 3.726-1.11-4.878zm8.66-18.594l5.04-3.683 1.1 4.818-6.14-1.135zm7.98 36.553l5.49-4.015 1.2 5.252-6.69-1.237z" opacity=".08" fill="#fff"/><defs><linearGradient id="paint0_linear" x1="38" y1="450" x2="1703.5" y2="142" gradientUnits="userSpaceOnUse"><stop stop-color="#42BBC4"/><stop offset="1" stop-color="#9BE4EB"/></linearGradient></defs></svg>